<svg xmlns="http://www.w3.org/2000/svg" preserveAspectRatio="xMidYMid" viewBox="0 0 13660 10000">
  <path d="M13700 2720c-160 220-480 260-720 180-240-90-420-300-440-550-30-240 80-560 340-630 110-30 230 10 300 110 40 50 60 110 70 170 20 100 20 230 130 280 120-30 270-50 350 50 90 120 40 290-30 390zm-80-420c-80-20-160 0-240 10-10 10-20-10-10-20-110-40-120-160-140-260-30-180-180-350-380-270-290 130-350 550-220 810 140 260 470 390 750 320 160-40 310-150 350-320 30-110 10-240-110-270zm60 120-80-50 10-10 80 40c10 10 0 20-10 20zm-10 20c10 10 0 20-10 20-30-30-60-40-90-50v-10c30 0 70 20 100 40zm-90 10c50 10 100 30 110 80s-40 90-90 90c-40-10-80-60-80-100 10-30 30-60 50-70h10zm-30 90c10 30 40 60 70 50s50-50 30-80c-10-20-40-30-70-30a10 10 0 01-10-10c-20 20-30 50-20 70zm-110 250c-40 10-80-30-90-70 0-40 30-80 70-90l10 10c30 0 60 30 70 60 10 40-20 80-60 90zm-30-120-10-10-20 50c0 30 20 60 50 50 30 0 50-20 50-50-10-30-40-50-70-40zm-80-210 20-70h10c10 30-10 60-20 80l-10-10zm-40-20c20-20 20-40 10-60 0-10 10-20 20-10 10 30 0 60-30 80v-10zm-80-10c-60 20-150-30-170-90-10-50 20-100 60-120 60-20 140 10 170 70s10 130-60 140zm30-140c-40-50-100-50-150-30-20 20-30 60-10 90s70 60 110 60c70 0 80-70 50-120zm-150 520v10c-30 0-60-20-60-50h10c10 20 20 40 50 40zm-50 30v10l-30-20c-10-10-20-20-10-30h10l10 20 20 20zm-100-150c-50 20-120 0-140-50-20-30-10-70 20-90 40-40 100-30 130 10s40 110-10 130zm-10-110c-20-40-70-40-100-20a10 10 0 01-10 10c-10 20-10 50 10 70s50 30 80 30c50 0 40-60 20-90zm-90-270-40-50-40-30v-10c40 10 70 40 90 70 10 10 0 20-10 20zm-30 0c0 10-10 20-20 10l-30-50-60-30 10-10c40 0 90 40 100 80zm-30 10c30 30 40 90 0 120s-110 0-130-40v-90c40-30 90-30 130 10zm-90-10v10c-30 20-30 60-10 80s70 40 90 10 10-70-20-90l-60-10zm400 360c20-30 70-40 100-20 50 20 60 80 30 120-30 50-90 50-130 20-40-40-40-100 0-120zm30 110c30 20 70 0 90-30 30-80-80-120-120-50v10c-10 20 0 50 30 70zm410-2050c-10 50-40 100-80 150l-70 50-90 60v10l-10 20h-10c0 10-20 20-30 10-60-120-170-280-110-410 50-90 150-130 240-110l60-150c0-20 20-10 20 0l-50 160c80 30 140 120 130 210zm-50 40-130-140-40 120 40 50 60 60c30-20 60-50 70-90zm-130 150a770 770 0 00 50-40l-60-60-40-50c-20 70-40 140-40 210 20-30 70-50 90-60zm-120 40 30-160-80 40 50 120zm-60-130 100-70 50-140-170 100 20 110zm-20-130 190-110 20-50c-100-20-210 40-210 160zm240-150-30 60 130 140c20-40 20-80-10-130-20-40-50-60-90-70zm-70 190h10l30 30 30 30-10 10-30-30-30-40zm40-10c20 20 30 40 60 50 0 10 0 20-10 10-30-10-50-30-60-60h10zm20 860-10 10-210-150 40 100 150 30c20 10 10 40-10 30l-130-30-20 10-10-10-240-20c-90 0-180-10-270-50-110-60-230-240-180-380l-130-40c-10 0-10-30 10-20l140 30c110-160 350-90 480-10 190 110 310 300 400 490l-10 10zm-210-40-30-120-180-110 80 220 130 10zm-310-30 150 10-70-220-50-20-120-60c20 100 50 200 90 290zm-170-40 140 40c-40-100-60-200-80-300l-160-60c40 110 80 210 100 320zm-70-60 40 40-90-300-50-20c-30 100 30 220 100 280zm-70-310h-10 20a10 10 0 01 0-10c60-20 120-50 190-60-80-10-160 0-200 70zm230-70-190 80 160 60 190-80c-50-30-100-50-160-60zm260 120-80-50-180 80a2150 2150 0 01 180 90c50-30 100-40 160-60l-80-60zm90 70-150 60 180 110a1050 1050 0 01 80-30l-110-140zm120 160a1050 1050 0 01-70 30l170 130-100-160zm-310-220-60 20v-10l60-30v20zm-300 60 50 140h-20l-40-140h10zm50 50 30 90h-20l-20-80 10-10zm-460-410c-60-30-110-80-130-140-40-100 10-220-90-290-20 30-50 20-80 10a60 60 0 01-20-40c-40 0-60-30-70-60 0-50 30-90 60-120 40-30 70-80 120-80 40-10 80 10 90 40v10c30 0 50 20 60 50v10c160 110 420-20 560 150 110 120 0 300-100 390-110 100-270 150-400 70zm-290-630-50 50c-20 20-30 40-20 60 0 20 20 40 40 40l20-60c30-50 80-100 140-120l20-10c-40-80-120 0-150 40zm600 110c-140-20-280 10-390-70l-50 30c130 100 260 160 420 190l10-30c0-20 30-20 30 0l-10 40 40 10v20h-60l-40 20-100 10c-30 0-60 0-90 20l50 90c10 10-10 20-20 10l-60-90c-20 10-50 30-40 40v10h-10l-10-10c0-20 20-40 50-60-60-80-130-140-220-190l-30 30s-20 0-10-10a380 380 0 01 80-110 480 480 0 01 50-40l10-10c-10-60-110 0-120 20a340 340 0 00-40 40c-30 20-50 50-40 90 0 30 30 50 50 40v-10c-10 0 0-20 10-10 50 20 80 50 100 100 20 70-10 150 30 220 90 170 310 170 460 60 70-50 130-130 150-220 30-140-70-220-200-230zm-450-30a570 570 0 00-40 50c90 40 180 110 240 200l10-10c40-20 130-10 190-30-150-30-290-100-400-210zm420 450c-50 10-110 20-170 10v-10c60 0 110-10 170-30v30zm-60 30 10 20c-60 20-120 20-180-10l10-10c50 20 100 20 160 0zm-500 520c60-20 120-90 100-160-20-90-140-80-210-40a10 10 0 01-10 0h-20a680 680 0 01-40-110l10-10 10-20c150-50 340-10 370 170s-30 320-210 360c-160 30-320 10-350-170l-10-330 20-420a10 10 0 01 0-10l10-10h160l10 10-30 540c0 120 50 250 190 200zm-190-700c-10-40-80-30-120-30l-20 490c0 140-30 390 180 410 160 10 330-40 330-230 10-90 0-180-80-230s-170-50-250-20h-10l30 80h10c100-50 240-60 250 90 10 110-100 190-200 180-150-10-150-170-150-280l20-320c0-30 30-120 10-140zm-10 740c40 20 90 40 140 40v20c-50-10-100-20-140-50v-10zm30 60 110 30v20c-40 0-80-10-110-30v-20zm-300 230c20 80 20 160 20 240h10c90 20 220 50 290 120 60 60 60 150 50 230-40 200-220 310-410 310-180 0-380-70-400-270-20-190 140-340 310-380v-240h-40v-10c-30-20-10-50 20-60l90-10h80c30 10 30 50 0 60l-20 10zm-410 600c0 210 190 270 370 270 170 0 330-90 370-260 30-100 20-200-70-250-70-50-160-70-240-90l-20-10-10-250-110 10 20 240-20 10c-150 50-290 160-290 330zm410-640c-10-20-20-10-30-10h-40l-40 10c-10 0-70 0-50 30h10a530 530 0 00 130-10c10 0 30 0 20-20zm270 490a10 10 0 01 10 10v20l10 10c20 210-180 340-370 330-160-20-320-160-250-330l10-10c0-60 160-60 200-70 120-10 280-30 390 40zm-590 70c-60 350 610 360 590-30-140 60-300 80-450 60-20 0-110 0-140-30zm300-90-130 10c-20 10-140 10-160 40-10 60 260 50 290 50 100-10 180-30 270-60-80-50-180-40-270-40zm-60 310v10c-40 10-90-10-130-40l10-10 60 30 60 10zm-80-50 110 10v20l-110-20v-10zm340-330-120-20v-20c40 0 90 10 120 30v10zm-20 20-130-10v-20l130 10v20zm-480-630v-10h-20a3910 3910 0 01-660-700l-100-200c-10-30-70-130-40-160 20-30 90 10 120 20 90 40 170 90 240 140l10 20c110 80 210 200 310 290a11300 11300 0 01 320 380c60 110-50 270-180 220zm-800-1040c-10 10 30 80 30 90l50 100 60 130c40-20 80-30 110-70 30-30 40-70 50-120-80-50-270-170-300-130zm330 150h-10c0 50-20 100-50 130s-90 70-130 50v10l90 100c90-30 190-70 200-170l-100-120zm120 140c-20 90-110 140-200 170l20 20c90-20 160-80 200-170v-10l-20-10zm200 190-90-80-50 80c-10 60 50 100 80 130 40 30 200 170 240 60l-180-190zm200 210c-40 100-180 10-240-30-40-40-110-80-120-140-10-50 20-100 60-130h10l-80-70c-30 90-100 160-200 180l360 370a10 10 0 01 0-10c100-30 170-80 210-160v-10zm20 20c-40 90-130 160-220 160l10 20h10c90-10 220-30 220-150v-10l-20-20zm90 100-50-50c-10 110-130 150-230 150a4420 4420 0 00 120 110c110 10 210-80 160-190v-20zm-70 140h-30l-30-10v-10l60 10v10zm0 20v10c-40 10-70-10-110-30h10l100 20zm-710-850-120-60v-10c40 10 90 30 120 60v10zm-80-20 80 30c10 10 0 20-10 20l-70-40v-10zm-1040 800-380 190c-120 60-240 130-370 170v-10h-10c0 20-20 0-20-10l350-640c110-210 210-430 340-630l20-20c280 160 560 350 830 530a10 10 0 01 10 10c10 0 20 20 10 30l-780 380zm-70-920-40 90 100 50c10 0 0 20-10 10l-90-50-30 50c30 0 60 10 80 30 10 0 0 20-10 10l-70-30-30 50 90 40v10l-90-40-40 60c30 0 50 10 70 30l-10 10-30-10v-10l-30-10-30 50c30 10 70 20 90 40 10 0 0 20-10 10-20-20-50-30-90-40l-30 60 50 20h10l-10 10-50-20-30 50 80 30v20l-90-40-30 50 60 20c10 10 0 20-10 10l-50-20-30 50 80 30v20l-90-40-20 40-10 20h20l30 10v20l-30-10-20-10-30 50 90 40-10 10-90-40-30 60 30 10 20 10v10h-10l-20-10-20-10-30 50 100 40c10 0 0 20-10 10l-100-40-40 80 50 20v10l-60-20-20 50 80 40v10l-90-30-30 50 40 20v10l-30-10-20-10-20 50 50 20c10 0 0 20-10 10l-30-10-20-10-70 130c110-90 260-140 380-200l370-180 740-370-810-520zm-280 910-10-10c50-110 130-210 190-310l170-310 10-10c160 60 310 140 450 230 20 10 10 20 0 20a10 10 0 01 0 10c-230 180-530 280-800 380h-10zm780-400-410-210c-50 110-110 210-180 320-50 80-90 180-160 260 260-120 520-210 750-370zm-90-140 140 70v20l-140-90c-10 0 0-10 0 0zm80-10 130 70s0 20-10 10l-120-60v-20zm-630 550-150 60-10-10 150-60 10 10zm30 10c10 0 20 10 10 20l-140 50v-10l130-60zm-400 610c10-10 30-10 30 10l-10 360a4760 4760 0 01 250-280c40 200-40 430-250 500v110c0 50 30 80 60 120 40 40 70 70 90 120 70 200-130 390-330 330 0 10-20 10-20-10v-380l-90 150-130 130h-10c-120 0-210-180-180-290 50-130 210-150 330-130l80-100c10-230 50-450 180-640zm250 120a4700 4700 0 00-230 290v160c180-80 250-260 230-450zm-100 910c10-60-20-130-70-180l-80-70-10-60h-130v-20h130v-260l10-380c-220 350-100 780-150 1180 140 40 300-50 300-210zm-330-350-20 20-50 50-10 20c-90-10-200-10-270 60-90 110 10 270 120 310l150-180c20-40 40-90 80-120v-160zm-30 140-50-40c-10 0 0-10 0 0 30 0 50 10 60 30l-10 10zm-50 0-80-20-10-10c30-10 70 0 100 20l-10 10zm10 50-160 190a10 10 0 01-10 10 10 10 0 01-10-10c-50-50-100-120-40-180 50-70 140-60 220-30v20zm-190 10c-60 50-20 120 20 160l140-180c-50-10-110-20-160 20zm360 20c40-60 110 10 140 40 40 50 60 130 20 200-30 40-100 90-160 50l-10-180c10-30-10-80 10-110zm20 260v30c70-30 130-50 140-140 0-40-40-120-90-140-10-10-30-10-50 20v130l-10 100h10zm-30-600a30 30 0 01 10 0l40 20c0 30-20 50-40 40-20 0-40-20-40-40l30-20zm10 40 20-10c-10-10-20-20-30-10a20 20 0 00-10 10l20 10zm190-240c10 0 20 0 10 10l-50 80c-10 0-20 0-10-10l50-80zm60 10 10 20-40 20-20 40-10-10c10-30 30-60 60-70zm-850-580c-90 10-160-60-160-150-60 50-130 80-190 30-70-80-80-220-60-310 10-90 50-210 140-250 100-50 170 30 250 70l50-90c-40 10-80 0-110-30-40-40-50-110-40-170l10-10c50 10 110 30 140 70 20 30 40 70 30 100l70-60c10-10 20 10 10 20-60 50-110 110-140 180 110-20 230-20 290 80 60 90 20 210-40 300-50 80-150 200-250 220zm0-840c-20-20-60-30-90-40l130 120c0-30-10-60-40-80zm40 100c-60-40-100-90-140-140 0 40 0 80 20 110 30 40 70 60 120 50v-20zm210 210c-60-70-170-60-260-50l-10 60c20 20 50 30 80 30 10-10 20 10 10 20-80 10-140-80-210-50v-10c30-20 60-10 100 10a360 360 0 01 10-80c-60-20-110-70-170-70-110 0-160 110-180 200-20 80-20 170 10 260 30 60 60 110 150 70l110-70c10-10 30 10 10 20l-40 30a10 10 0 01 10 10c0 90 80 150 180 100l70-60c50-40 90-90 120-150 50-80 80-190 10-270zm-30 80c0-40-20-70-50-80v-10c40 10 60 50 70 90h-20zm-30-40c10 30 20 70 10 100h-10c0-30 0-60-20-90l20-10zm-290 670c140 30 240 160 260 300l40-20h20l80 100 10 10-10 10c-110 90-420 230-340 420v20a10 10 0 01-10 20 510 510 0 01-90 10l-10-10c-60-70-70-180-40-270-100 50-220-10-290-100-90-100-90-230 0-330 90-110 240-190 380-160zm-370 460c60 90 180 150 290 100 10-10 30 10 20 20-30 90-20 180 30 270l70-20c-40-70-20-150 30-210 80-90 210-170 310-230l-80-90a770 770 0 01-50 30l-10-10c-30-130-110-250-240-290-110-30-230 30-310 100-100 90-140 210-60 330zm410-240c80 70 40 190-40 240-80 40-180 30-240-30-60-80-30-190 40-240s200-60 240 30zm-240 200c120 110 330-40 220-190v-10c-60-50-140-50-200 0-70 40-90 140-20 200zm390 40c10-10 20 0 10 10l-110 80c20-40 60-70 100-90zm0-20-70 40c0 10-20 0-10-10l80-50v20zm-880-1180v550c-10 180-10 350-30 520l10 20 10 10v40a40 40 0 01-30 20h-20l-20-10h-10c-30 20-60 30-80 60v40l10 20a1200 1200 0 01 60 20c10 20 0 50-10 70h-70c-210-30-420-80-610-160-80-30-170-90-180-170-80-70-50-200-40-300l10-440v-220c10-60 0-120 20-180s70-110 140-90h10c50-10 100 0 160 10l220 50a7200 7200 0 01 460 110c10 0 10 20-10 30zm-150 1150a10670 10670 0 00 30-10l-320-100c-60-20-320-130-400-60-80 140 270 200 360 220l290 60-10-30a3570 3570 0 01-570-190l570 170c10-30 30-40 50-60zm-820-1110c30-30 70-40 110-30V920c-90 10-110 120-110 220zm110-20c-50 0-80 10-110 40v220c20-40 60-70 110-60v-200zm0 320v-100c-50 0-90 20-110 60l-10 130-10 300c0 90-20 200 20 280l10-60c30-40 60-70 110-80-20-180-10-350-10-530zm-30 580c-210 160 190 280 290 310 140 50 280 80 430 110v10l40-10c10-10 20-20 10-40-200-20-400-80-590-140-90-20-230-100-150-200h10c40-50 190-10 240 0a7260 7260 0 01 580 170v-30h-10l-410-130c-130-40-320-140-440-50zm870-930-380-100-220-40c-60-10-140-40-210-30v1040c70-10 150 10 210 30l580 180c-10-360 30-720 20-1080zm-320-20-150-30v-20c50 10 110 10 160 30l-10 20zm-280 830-110-20 10-20 110 20-10 20zm-30 30-110-10v-10c40-10 80 0 110 10v10zm240-870 80 10v10c-30 10-60 0-80-10v-10zm-760-230c-60-50-90-120-110-180l-60-150c-60-60 20-130 90-120 90 30 180 150 210 230 10 10-10 20-10 10l-110-140-70-50c-40-30-130-10-90 50v20l80 180c40 70 160 230 230 110-30-120-140-200-210-290-40 0 10 100 20 100a910 910 0 00 30 50l90 120c20 10 0 30-20 20-60-70-130-150-160-240-10-30 0-70 30-70 0-10 10-20 20-10l160 190c20 30 50 50 50 80l10 40 10 10c-20 90-140 80-190 40zm-160 410c30 60 70 130-10 170-30 20-80 10-110 20h-450c-50 0-140 10-190-10-60-30-30-100-10-140 60-130 130-250 210-360 40-60 80-110 80-190l-20-220h-50v-10c-20-10-30-20-30-40-10-20 0-30 10-40l10-10 10-10 10 10c90-20 180-20 280-30l10 20c20 20 40 60 10 80l-10 10-60 10c0 150 0 290 90 410l220 330zm-250-770v-30l-20-30h-10l-270 20-10 30 20 30h10l280-20zm-70 310c-20-90-20-180-20-280l-150 10c20 90 50 200 30 290-10 80-100 170-150 240a2540 2540 0 00-120 220c-20 50-40 60-10 110 30 40 50 30 100 30h460c80 0 200 20 180-100-10-40-60-100-80-130a2570 2570 0 00-100-140c-50-80-110-150-140-250zm240 530c-10 30-40 30-60 30l-230 10h-230l-60-30c-40-60 90-240 130-300l10-10h10c50-10 190-20 230 10h10l160 210c10 20 40 50 30 80zm-430-280 100 20c10 10 110 0 110-10 0-30-170-20-210-10zm370 220c-30-70-90-130-140-190-20 20-60 20-80 20-60 10-110 0-170-30-40 80-120 190-90 240s90 30 130 30h350c30-30 10-50 0-70zm-310 0h-100v-20h100v20zm-30 20c20 0 20 20 10 20-40 10-80 0-120-20l10-10c30 10 70 20 100 10zm190-340c-30-20-50-50-50-80-10-20 10-20 20-10 0 30 20 60 40 80l-10 10zm-70-30c-20-30-30-60-30-100h20l10 40 20 40-20 20zm-370 760 20 50v30a720 720 0 00-60 20l10 30 20 40c110-50 220-80 340-60 250 20 470 210 530 460 60 240-40 510-240 660h-20a520 520 0 01-40 30l10 20 30 20 20-10 10 10 50 60h10v10c10 10 0 20-10 20l-10-10-60 40 70 120 290-40c10 0 20 10 10 20v10c-90 80-190 130-300 170s-220 90-330 100c-10 10-30 0-20-20 70-80 150-170 250-210l-40-120c-360 140-790-30-970-370-210-400-20-940 420-1100l10 20zm750 400c-70-110-180-190-300-230a80 80 0 00-20 30l10 50c10 10 60-30 70-30l30 40c0 20-20 40-30 50-30 50-50 100-10 130v10l10 10c-10 20-20 50-10 70 0 30 30 50 60 30 20-10 10-40 10-60l10-50 80-80v10c30 0 30 40 20 50l-10 30 10 10 10-10c10-10 10-20 30-20l10 10c50 50-100 150-130 190-120 190 130 160 220 230 50-150 30-330-70-470zm-160 810 10-10c100-80 180-180 220-300-80-70-220-30-260-130-20-40-10-90 10-130 20-30 140-140 140-180-10 20-30 40-50 20v-40s20-40 0-40a10 10 0 01 0-10l-40 50c-20 20-20 40-20 60 0 30 0 60-30 70a10 10 0 01 0 10c-30 20-70 10-80-20-20-30-10-70 0-100-50-20-40-90-20-130 10-20 40-40 40-60l-20-20-10 10-10 10h-30l-10 10c-20-20-30-60-20-80l20-40a580 580 0 00-560 130c100 40 160 150 150 260-10 50-30 110-70 150-50 80-130 120-120 230 10 50 20 100 60 140s80 20 120 10c60-10 120-10 170 10 80 30 130 130 90 210 110 0 220-30 320-90zm-690-490c110-130 120-320-50-410a10 10 0 01 0-10 590 590 0 00-70 760c120 160 290 240 470 240 50-120-70-200-170-200-50 0-100 30-140 30-90-10-110-90-130-160-30-120 20-160 90-250zm660 570-10-20c-230 120-540 70-730-120a630 630 0 01-110-710c60-110 150-200 260-260l-30-70a680 680 0 00-300 910c90 180 260 320 460 360 170 40 320 0 470-70l-10-20zm-190 490c200-50 420-130 590-260l-270 30v30c-10 30-50 50-80 30a10 10 0 01-20-10v-20c-80 60-160 120-220 200zm250-190-10 10h10c20 10 50 0 50-30l-10-10v-10l-70-130-40 20 70 150zm-1030-530c200 400 680 510 1070 300l-40-50c-330 240-820 70-1000-270-170-350-20-780 320-950l10-10 60-20a460 460 0 01-20-50c-400 180-610 640-400 1050zm1000 590-80 30v-10c20-10 50-30 80-30v10zm0 30c-40 30-90 40-130 50l-10-10 140-50v10zm-210-440c60 0 110-20 170-50l10 10c-50 40-120 60-180 50v-10zm70-20v-10l100-60c10 0 20 10 10 20l-110 50zm-290-980-80 10-10-10c30-10 60-20 90-10v10zm0-40h-60l-60 20c-10 10-10 0-10-10 40-20 90-40 130-30v20zm-560-840c10 10 0 30-20 60h-10c20 10 30 30 30 60l-30 170a3620 3620 0 01-170 560c-20 50-40 90-110 100-90 10-200-30-280-80-40 30-80 40-130 10-80-30-90-110-80-180-220-60-540-120-640-350l-20-40a10 10 0 01-10-10c-30-100-50-210-30-320-230-50-150-410 20-480-20-60-30-130 0-190 80-180 300-210 470-210 240-10 500 10 730 90 150 50 300 160 280 330l-10 10c20 20 30 40 30 70 20 120 0 260-10 380l-10 20zm-720 830c30 40 70 50 110 10a220 220 0 00 70-70l30-70a2430 2430 0 00 200-560v-20h10c0-20 20-10 20 0v10c60 10 220 60 230 30h10c10 70-180 10-250-10a1810 1810 0 01-230 640l70 50c20-20 40-40 30-50l-30-10-40-20c-10-10 0-30 10-20l60 30 30 20-10 20-40 50h-10l-80-60-40 50c60 30 120 50 190 60 60 10 110-10 150-50l30-100a3980 3980 0 00 150-530l20-90c-10-70-50-90-110-110a790 790 0 00-160-40h-80c-40-10-40 20 0 100l70 10v20c-60 0-140-10-160-70v-20l-170 360-80 180-40 110c-20 70-10 100 40 150zm-670-450c120 190 400 230 600 290l40-110a16600 16600 0 01 290-560c0-20 20-40 50-40 90-20 220 20 310 50l50 30 10-10c60-50-140-120-160-130l-190-70a3150 3150 0 00-340-90c-110-20-220-50-340-40-110 10-200 70-270 160-110 140-150 360-50 520zm-80-850c-160 70-200 360-30 430 20-130 80-250 160-350-50-10-100-40-120-80h-10zm140-340c-150 90-210 340 10 400a660 660 0 01 140-120c-120-40-130-190-100-300l-50 20zm170 270c70-40 140-60 220-80a10170 10170 0 01 750 90c-90-190-320-220-520-250-190-20-410-50-550 110 10 60 40 100 100 130zm320-330c-130 0-280-10-410 30-10 50-20 100-10 150 120-160 350-150 530-120 210 30 480 60 570 280v10h10l120 40c30-360-580-380-810-390zm840 520c-10-140-180-140-290-160-200-40-420-100-620-80a640 640 0 00-550 510c40-80 80-160 140-220 50-60 140-90 210-130a940 940 0 01 540-40h20l60 30 30 20c10 30-30 40-40 60h-20c-10-30-30-60-60-80-190-30-360-30-540 50-70 30-150 60-210 130-50 60-90 150-140 230l-10 150c20-130 80-250 160-340 210-190 520-100 760-30a3050 3050 0 01 540 210l20-310zm-570-110 60 70 20-20c10-10-20-20-30-20l-40-20-10-10zm530 350c-30-10-70-20-90-40v-10c30 0 60 20 90 40v10zm-30-50-50-20c-20 0-10-20 0-20 30 0 50 20 60 40h-10zm-180-250-70-20-30 180h-20c0-70 10-150 30-220h20v-10c30-10 120-10 100 40l-30 30zm-10-50h-60v10c20 10 60 30 80 10 10-20-10-20-20-20zM3620 460c-20-30-30-70-30-110h20v50l20 60h-10zm0 30 10 30h-10v-30zm-50-50c-20-30-30-80-10-110 0-10 20 0 10 10v50l10 40-10 10zm30 480c10 0 30 20 10 20-40 30-60 70-80 120h-10c0-60 40-110 80-140zm0 110-50 100-10-10c10-30 20-70 50-100 10-10 20 0 10 10zm1180 400 20-60 20-70h10c10 40-10 110-50 140v-10zm-10-40h-10c0-30 10-70 30-100 0-10 20 0 10 10l-30 90zM3160 970l-40 70a10 10 0 01-10 0l-10 10c-90-10-180-70-230-150-30 110-160 160-260 160-140 0-240-80-260-220-20-130 10-310 130-390 110-90 270-80 390 0l10-50 10-10 130-10 10 10 10 10c0 150-100 480 100 530 10 10 20 10 10 20a10 10 0 01 10 20zm-160-170c-30-120 0-270 20-390h-120l-10 50a10 10 0 01 0 10h-20c-120-60-260-80-370 0-100 70-130 190-130 300 0 130 70 250 210 260 110 10 240-40 270-160h30c50 80 120 140 220 150l30-60c-70-20-120-90-130-160zm-50-60-10-140h20v140h-10zm-30-70h-10c-10-30-10-60 10-90 10-10 20 0 20 10-20 30-20 50-20 80zm-270 240c-100 0-160-90-160-180 10-90 90-190 180-170 100-10 170 90 150 190-10 80-90 150-170 160zm10-330h-10c-70 10-120 80-130 150 0 80 60 150 140 140 170-20 180-280 0-290zm-420 1060-30 10h-10c-170-20-450-100-530-280-30-60 0-130 70-170s160 0 230 30c10-70 30-150 100-190 50-30 120-40 170 10 60 50 70 130 70 200-10 130-30 270-70 390zm30-420c0-90-40-200-150-170-90 20-120 130-120 210 0 10-10 20-20 10-90-40-240-110-270 30-20 60 0 90 40 130l90 60c110 70 240 100 360 140h10c40-130 70-270 60-410zm-840-300v-10c-70 40-150 70-230 60-20 60-20 120-10 170h10c80 30 200 110 170 200a10 10 0 01 10 10c-10 110-40 330-160 370-110 50-270-10-380-40a1180 1180 0 01-240-100c-40-30-110-60-150-110-20-40-10-80 0-130l100-230c0-150 200-140 290-90h10c60-30 110-70 150-120-80-70-120-160-130-260-240 10-470-230-350-480C570 70 670 0 780 0c70 0 200 40 220 120a1120 1120 0 01 20-40c10-10 20 0 20 10 90 100 200 160 320 210 110 40 230 80 350 40-80-90-170-160-290-210-100-50-260-90-370-50l-10-10c20-40 80-30 120-30a810 810 0 01 580 290l10 10v20l-30 70c220-40 370 200 280 400-90 190-440 280-570 90zm-930 550c70 80 210 130 300 170 110 30 260 80 370 60 120-20 160-180 170-300-100 110-340 30-460-10-110-30-310-110-330-240-50 100-120 250-50 320zm150-450c-100 50-80 150-10 210s160 110 250 140 200 50 300 50c90 0 210-80 130-180-30-30-70-50-110-60 10 30 40 50 70 70v20l10 10c-30 140-270 20-340-10-50-20-320-120-230-200v-20l40-10 50-10c-50-20-110-30-160-10zm610 270c-190 0-390-70-530-210-30 80 480 330 530 210zm-360-270-80 40-70 10c150 110 300 180 490 190-80-70-110-190-60-290a320 320 0 01-160-60c-30 50-70 90-120 110zM730 40c-90 10-170 90-200 180-60 220 140 400 340 390v-40h-10c-100-20-190-60-240-150-30-70-30-160 10-220 70-130 260-140 330-10l20-40C960 50 810 20 730 40zm220 180c-80-140-280-110-320 50-30 160 110 230 240 280 0-110 40-230 80-330zm420 110c-130-50-260-110-340-220-60 140-130 270-140 430 0 140 50 300 180 370 160 80 350 10 440-130 90-120 140-270 200-410-110 40-230 10-340-40zm140 510c100 80 240 90 330-20 50-60 60-160 0-220-40-40-90-70-140-80l-10-10c-50 120-100 240-180 330zm200-390-10 40c80 20 170 70 210 140 30 70 0 140-40 190-80 140-270 150-380 40l-30 30h-10v10c120 170 410 90 510-70 110-190-40-390-250-380zm-200-10c30 20 50 10 80 0 10-10 20 10 10 20-30 10-70 10-100-10l10-10zm-50-40h10c30 20 60 20 100 0v20c-30 20-80 10-110-20zm-120 30c-30 130-90 250-130 370h-10c10 10 0 30-10 20l-100-40-10-20c50-80 80-170 120-260l-40 10h-20l-20-30-20-30 10-10 10-10 60-20 50-40h20l100 40c10 0 0 30-10 20zm-90-40c-30 40-90 50-130 50a940 940 0 01 20 30l10 20 60-10c10-10 20 10 10 20-10 90-60 180-110 260l70 30c30-120 80-260 140-360h10l-80-40zM990 680c-20-20-30-50-30-80h10l10 40 20 30-10 10zm-40 0-20-110h10l10 50 10 60h-10zm140 410 10 40 10 40c10 10 0 20-10 10-20-20-30-60-20-90h10zm50 20c-10 30 0 60 20 90l-10 10c-30-30-40-70-30-100h20zm-470 240-80-70 10-10 40 40 40 20c10 10 0 20-10 20zm-20 20-70-40 10-10 70 40c10 0 0 20-10 10zm100 30 10-10 160 60 120 50 10 10-60 150-20 10-280-110-10-20 70-140zm220 240 40-90c0-10 10-20-10-40l-40-20-180-70-70 120 260 100zm-590 980c-150-40-280-150-340-290h10c80 130 190 210 330 270 20 0 10 30 0 20zm-80-450c-20 0-20-20-10-20 80-20 140-110 190-170h20c80 130 200 210 350 240v20l-200 190c-30 20-40 40-80 30-50-20-110-90-150-130-40-50-90-100-120-160zm340 220 60-50 110-100c-130-40-240-110-320-220-50 50-90 110-160 140l-10 10h-10c70 80 140 160 220 220 50 40 60 40 110 0zm-140-80 80 70c10 10 0 20-10 10l-80-70c-10-10 0-20 10-10zm40-10 80 70c10 10 0 20-10 10l-80-70 10-10zm-80 220c-130-60-240-160-290-290h10c70 120 170 210 290 260 20 10 10 30-10 30zm40-740 10 10 50 80-10-100h20c70 80 140 160 190 250l170-110c10-10 20 0 20 20l-10 60h90v30l-150 110a1420 1420 0 00 100 40l10 20v20c20 100 60 200 140 270 70 80 180 140 270 200v20l-70 20h10l10 20v-10c20-10 30 10 20 20l-370 290c-90 80-180 190-290 230l-10 20c-280-70-370-360-310-610-50 50-210-30-260-50-100-50-230-160-250-280v-10c70 80 110 160 200 220 40 30 90 60 130 70 20 10 160 50 160 30l30-10c210-130 400-260 560-450a1570 1570 0 01-110-50l-10-10a1040 1040 0 01-130-70c-90-70-170-150-210-260a2570 2570 0 01-640 520c20-40 70-70 110-100a3170 3170 0 00 530-450zm870 900c-170-100-350-210-380-410-10 200 110 370 310 440l10-10 60-20zm-960 0c0 130-30 250 40 370 50 110 150 160 250 210 200-170 400-370 620-510-230-40-390-280-360-510-150 180-340 340-550 440zm440-570a690 690 0 01 130-90l-60 10c-10 0-20-10-10-20l10-60-170 100c30 30 70 50 100 60zm-260-190 140 120 20-10-180-220 20 110zm360 560-40-90c0-10 10-20 20-10 0 30 20 60 40 90l-20 10zm-30-60c0 30 0 60 20 80 10 10 0 20-10 10-20-20-30-60-20-90h10zm140 460c-130-90-260-200-270-360l20-10c20 160 140 260 260 350 10 10 0 30-10 20zm-150 60c10 10 0 20-10 20-80-50-140-120-190-190-20-30-90-120-50-160l10 10c-30 50 80 160 100 190l140 130zm-160 100 30 30a10 10 0 01 10 0h10l-10 20c-40 20-120-100-140-120-60-80-100-170-110-270h10c20 80 40 140 80 210a560 560 0 00 80 90 550 550 0 00 40 40zm-140 90c-30-20-70-60-80-100l10-10 80 100c10 10 0 20-10 10zm-50-20v10c-60-10-90-70-90-120h10c0 60 40 90 80 110zm360-180h20-20zm-1020 360v10c40-30 80-40 90 20 230 50 450 120 670 180h10l170 100c30 20 60 40 50 70-10 40-60 50-100 50-60 10-130 20-190 10v-10a20 20 0 01-10 0l-380-100c-100-20-220-50-310-100-30 30-70 30-90 0l-10-10c-40 0-90 0-120-40-30-30-20-80 0-110 40-90 140-140 220-70zm70 40-40 30c220 80 440 140 670 180l20-20c-220-50-440-100-650-190zm810 370 20-10a10 10 0 01-10 0l-10-20v30zm-200-10 20 10 10 10 120-10h30c-10-40 10-80 40-90a1120 1120 0 00-40-30l-100-60h-10c-60 40-80 100-70 170zm0-130c-230-40-450-90-660-180l-30 50c230 60 450 120 680 160l10-30zm-700-40-10-10v-10c120 10 240 70 350 100l340 90v-80c-230-40-450-90-670-160v40c10 10-10 20-10 10-30-70 0-160 80-190h10c-30-40-110 50-130 70l-20 60c-10 30 20 110 60 80zm10-210c-70-50-150-10-180 50-20 30-40 70-10 100s60 30 90 30l10-90 90-90zm830 320a10 10 0 01 0 20h-90v-20h90zm-30 30c20 0 20 20 0 20h-80v-20h80zM320 8910c10-40 40-80 70-110-50-230-60-450 30-670h30l70 360a4760 4760 0 01 180-330c80 190 60 440-140 550l20 110c20 40 60 70 100 90 40 30 80 60 100 100 120 190-30 410-240 390v10h-30c-10-130-40-250-70-380l-70 160c-20 60-50 110-90 160h-10c-120 30-250-130-240-240 20-140 170-190 290-200zm370-710a4700 4700 0 00-160 330l30 150v10c150-120 190-310 130-490zM540 9370c140 20 280-110 250-260-10-70-50-130-110-160-30-20-70-30-90-60-20-10-20-30-30-50l-120 20v-10c30-20 80-20 120-30l-10-30-40-220-80-380c-140 390 70 790 110 1180zm-280-30 110-210c10-50 30-100 60-140l-40-160-20 30-30 60-10 20c-90 10-200 30-250 120-70 130 70 260 180 280zm90-330c10 0 20 10 10 20-40 80-70 160-120 230a10 10 0 01-20 10c-60-40-120-100-80-180 50-70 140-80 210-80zm-110 230c20-70 60-130 90-200-50 0-110 0-150 50-50 60 0 110 60 150zm90-290c30-10 50 0 70 20l-10 10c-20-20-40-20-60-20v-10zm10 40h-90v-10l90-10v20zm120-300 40 20c10 30-10 50-30 50s-40-10-40-30 10-30 20-30l10-10zm10 50c10 0 20-10 10-20h-30v10l20 10zm210 290c50 50 90 130 60 200-20 50-80 110-140 80h-10l-40-170c0-30-30-80-10-110 20-70 110-20 140 0zm-110 60 20 90 10 100h10l10 20c60-40 120-70 100-150-10-50-60-110-110-120-20-20-40-10-50 20l10 40zm30-630 20 10-40 90-10-10 30-90zm70 20c-10 10-20 10-20 30l-20 30h-10c0-30 20-60 40-80 10 0 20 10 10 20zm-190-700a1180 1180 0 01-240-100c-50-20-120-50-150-100-30-40-20-80-10-120 20-90 50-160 90-240 0-150 190-150 290-100l10-10c60-20 100-70 150-120-90-60-130-150-140-250-250 10-480-220-370-470 50-90 140-170 250-170 70 0 200 40 220 120l30-50c0-10 20 0 10 10 100 100 210 150 330 200 120 40 240 80 360 30-80-90-180-160-300-200-110-40-260-80-370-40h-10c20-50 70-40 110-40a810 810 0 01 590 270l10 10v20l-20 70c220-50 370 190 290 390-90 200-430 300-570 110a20 20 0 01 0-10c-60 50-140 70-220 70-20 60-30 120-10 170a10 10 0 01 10 0c80 30 200 100 180 190a10 10 0 01 0 10c0 110-20 330-140 380-110 50-270 0-380-30zM320 6140c-100 20-170 100-200 190-50 220 150 390 350 380v-40h-10c-100-20-190-60-240-150-40-60-40-150 0-210 70-130 260-150 330-30l20-30c-20-100-170-130-250-110zm220 180c-80-140-290-110-320 60-20 160 120 230 250 270 0-110 30-230 70-330zm530 660c120 160 410 80 500-80 100-200-50-400-260-370l-20 30h10c80 20 170 60 210 140 40 60 10 130-30 190-80 130-260 150-380 40l-30 40h-10l10 10zm220-400c-50 120-90 240-170 340 100 80 240 80 330-30 50-70 60-160-10-220-40-40-90-70-140-80l-10-10zm-170 280c80-120 130-280 180-410-110 40-230 0-330-30-130-50-270-100-350-220-60 150-120 280-120 430-10 150 50 300 190 370 160 80 340 0 430-140zm-320 200a320 320 0 01-170-60c-30 50-60 90-110 120l-80 40-70 10v10c150 100 310 160 490 160-80-60-110-180-60-280zm-450 120c-30 90 490 310 540 190-200 10-400-50-540-190zm590 150-110-70a200 200 0 00 70 80v20l10 10c-20 130-260 30-340 0-50-20-310-110-230-200v-10c10-20 20-10 40-20l50-10c-50-20-110-30-160 0-100 50-80 150-10 210s170 100 260 120c90 30 200 50 300 50 90 0 200-80 120-180zm30 150c-100 120-340 50-460 10-110-30-310-100-340-230-40 100-110 250-40 320 70 80 210 130 310 160s260 70 370 50c120-20 150-190 160-310zm-360 280-290-100-10-20 70-130v-10h10l160 50c40 10 100 20 130 50v10c-10 50-40 100-60 140l-10 10zm20-160-40-10-180-70-60 120 250 90 40-80c0-20 10-30-10-50zm-330-150c-30-10-70-40-80-70h10l30 30 40 30v10zm-20 30-70-40v-10l80 30-10 20zm490-180c-20-30-40-70-30-100h20c0 30 0 60 20 90l-10 10zm-40-30c-20-20-40-50-40-90h20l10 40 20 50h-10zm70-680-40 10h-20l-20-30-20-30 10-10v-10l70-20 50-40 10-10 100 40c20 10 10 30-10 30-20 120-70 250-120 360v10c10 10 0 20-10 20l-100-40-10-20c50-80 70-170 110-260zm-10 290c30-120 70-260 130-370l-80-30c-20 30-80 50-120 50l20 30 10 20 60-10c10-10 20 10 10 10v10c-10 90-60 180-100 260l70 30zm280-400c30 20 60 10 90 0l10 10c-30 20-80 20-110-10h10zm40 40h80l10 10c-30 20-70 20-100 0l10-10zm-520 260c-20-20-30-60-30-90h10l10 40 30 40-20 10zm-30 0-30-110h10l20 50 10 50-10 10zm390 1300 20-30v-10c60-100 140-180 230-230-100-210 220-380 390-280 30-60 80-110 150-130 190-40 350 100 460 240 150 180 300 390 380 620 60 150 70 330-80 430h-20l-30 70c-80 90-210 160-300 230h-20l-60 20h-10l-30 50c-30 40-100 60-150 80a3630 3630 0 01-540 230c-50 10-100 20-140-20-70-70-110-180-120-280-50-10-80-40-90-90-20-80 30-130 90-170-90-210-250-500-130-730zm630-530h-10c-150-80-400 70-350 250 110-70 240-100 370-100-30-50-30-100-10-150zm340-100c-160-60-400 50-300 250l180 40c-40-120 70-220 170-270l-50-20zm-100 300a630 630 0 01 200 120 10160 10160 0 01 400 640c90-190-30-390-130-560-100-160-220-350-430-360-40 40-50 90-40 160zm660 910c300-200-60-680-200-870-80-100-170-230-280-300l-130 80c200 0 330 180 430 340 110 180 260 410 140 620l-10 10 10 10c20 40 40 80 40 110zm-350 190 20 100 240-180c120-100 10-230-40-330-100-180-190-380-340-530a640 640 0 00-740-110c90-20 180-40 260-30s160 50 240 90a940 940 0 01 360 390l20 10 20 70v40c-20 20-50 0-70 10l-20-20c20-30 20-60 30-100h-10a930 930 0 00-370-390c-70-30-150-80-230-80l-270 30-120 90c110-70 240-100 360-80 280 30 400 340 500 570 70 140 120 290 160 450zm-20-500h30v-40l-10-40v-10l-20 90zm-1080 600c-10 50 10 80 60 100h90l80-20a2430 2430 0 00 560-190c-10-10 10-30 20-10h10c10-10 20 10 0 10v10c30 60 90 220 120 200 10-10 10 0 10 10-50 50-120-130-150-200a1810 1810 0 01-640 220v90l60-10-10-40-10-30c-10-20 20-20 20-10l20 70v30l-30 10h-60l-10-10v-100h-60c10 60 30 130 70 190 20 50 70 80 130 70l100-30a3980 3980 0 00 500-220c20-10 70-20 90-40 40-50 30-90 10-150a790 790 0 00-70-150l-40-60c-20-40-50-20-80 60l40 60c0 10-10 20-20 10-40-40-80-110-40-160a90 90 0 01 10-20l-390 90-190 60-110 30c-70 30-90 60-90 130zm70-150 120-50a16610 16610 0 01 620-120c20-10 40 0 60 10 70 60 120 190 150 280l10 60a10 10 0 01 10 0c90 10 20-180 10-210a3080 3080 0 00-60-190c-50-110-90-220-150-320-50-100-100-210-180-290-70-80-180-120-290-110-190 0-380 110-440 290-70 210 70 450 140 650zm200-840v20c-40 0-70 0-110 20l-10-10 120-30zm-80-30c50-30 110-40 160-20 20 10 10 30-10 20-50-20-90-10-140 10l-10-10zm500 1220 70-20 60-40 10 10c-30 40-90 60-140 50zm120-70-90 40-10-10 100-50v20zm440-650c10-10 20 0 10 10h10c20 20 90 90 40 100-20 10-40 0-50-10-20-10-20-40-30-60l-160 90c-10 0-20-10-10-20l190-110zm40 90c20 10 10-10 0-20l-30-40-10-10v10c10 20 10 60 40 60zm-150 270c20 20 20 60 30 90h-10l-30-90h10zm40-20 10 70h-10l-20-60c-10-10 10-20 20-10zm-410-1180-40 50c-10 10-20 0-10-10 10-30 40-70 70-90 10 0 20 10 10 20l-30 30zm-20-40-30 30h-10c10-40 40-70 70-80l10 20-40 30zm-70 120 20-10-20 20v-10zm800 1870c20-40 60-80 110-90 110-560 330-1110 600-1600 10-20 40-10 30 10-200 530-210 1120-510 1600l-10 10c80 50 70 160 40 240-40 120-120 230-230 290l-20-10-10-10c20-150-80-290 0-440zm650-1510c-170 340-300 690-420 1060 50-20 110 0 130 50 130-360 180-750 290-1110zm-300 1130c-30-50-80-70-120-50l-100 340a140 140 0 01 70 10v-10c60-90 110-190 150-290zm-340 620c10 70 30 130 10 200 70-50 120-110 160-180 0-30-30-40-50-30-20 0-30 10-50 30v20c0 20-20 10-20 0 0-20 10-60-20-70-20-10-30 10-30 30zm-10-40 40-20c30 10 40 30 40 50 20-20 50-30 70-30s40 10 50 30l10-10c40-90 80-320-90-280-120 30-130 160-120 260zm160-230c40 0 80 40 70 80h-10l-20-50-40-20v-10zm10 40c40 10 60 50 40 80 0 10-20 0-10-10v-30a50 50 0 00-30-30v-10zm220-740 10 10-40 140c0 20-20 10-20 0l50-150zm50-60c0 50-10 110-30 160h-10l30-160h10zm300 140 110-110h20l340 430c70 80 190 150 270 20 30-60 30-150-30-190-80-50-160 40-190 110a10 10 0 01-10 10c0 10-10 20-20 10l-90-60v-10l-10-20c80-140 250-230 390-120 140 120 190 260 80 410-100 130-230 210-370 100l-230-240a5890 5890 0 01-260-340zm330 370c100 110 240 320 400 200 130-100 220-260 110-400-60-70-130-130-230-120-80 20-150 80-190 150l-10 10a700 700 0 01 80 40c40-110 150-210 260-110 70 80 50 220-40 280-120 80-220-30-290-120l-200-240c-20-30-60-110-90-120-30-20-80 30-110 60l310 370zm280 130c50-10 100-30 140-60l10 10c-40 30-90 50-140 60l-10-10zm70 30c40-20 70-30 100-60 10 0 20 10 10 20l-100 50-10-10zm370-890c0-60-20-130-50-180-90 50-190 50-280 20-90 220-400 340-580 130-70-80-90-200-50-300 30-60 120-160 200-150l-30-40c-10-10 0-20 10-10 130-40 230-120 320-220 90-80 170-180 180-310-120 40-220 100-310 190-80 80-180 210-190 320l-10 10c-30-40 0-80 20-120 30-70 70-130 110-180 100-120 230-200 380-250a10 10 0 01 10 10h20a2280 2280 0 00 60 60c40-230 320-270 470-110 140 160 90 520-140 560h-10c10 80 0 160-30 230 40 40 100 70 150 80v-10c70-60 180-140 260-80a10 10 0 01 10 0c90 50 280 160 280 280-10 130-120 260-190 340a1180 1180 0 01-190 180c-40 30-100 80-150 90s-90-10-120-40l-180-180c-130-70-50-240 30-310v-10zm-950-270c-20 100 30 190 100 250 170 150 410 40 490-150l-40-20v10c-60 80-140 150-240 160-80 0-150-30-200-90-90-120-20-300 120-320l-20-20c-100-20-190 100-210 180zm540 80c-110-50-200-130-280-210-160 20-210 220-80 310 130 100 260-10 350-100h10zm530-420v10h10c200-40 250-340 140-490-140-170-380-120-450 80l30 30v-10c50-60 130-120 210-130 70 0 130 50 160 100 90 140 30 310-110 370l10 40zm-260-360c90 90 190 190 240 300 110-60 170-190 110-310-40-70-120-120-200-90-60 20-100 60-130 100h-20zm180 270c-70-120-190-230-290-340-10 120-90 210-170 300-100 90-200 200-340 220 110 110 200 230 340 290 130 70 290 80 410-10 140-120 140-320 50-460zm50 380a320 320 0 01-120 130c30 40 50 90 60 150a370 370 0 01 0 90l-20 60 10 10c160-100 280-210 360-380-100 50-220 30-290-60zm-80 460c70 60 490-320 400-410-70 180-210 340-400 410zm270 370c100-40 200-150 280-220 70-80 170-200 200-310 30-120-110-220-210-280 60 140-110 330-190 430-70 80-220 230-350 200 70 90 180 210 270 180zm-350-320c10 110 100 130 190 90 80-40 160-100 220-170 70-80 130-170 170-260 40-80 10-220-110-190-50 20-80 50-110 80a200 200 0 00 100-40l10 10 20-10c110 90-80 260-140 310-40 40-240 240-280 130h-10v-40l10-60c-40 50-70 90-70 150zm210 140 50-20 40-20c0-10 20 0 10 10-30 20-60 40-100 40v-10zm100-20c10 0 20 10 10 20l-60 40c-10 10-10 0-10-10l60-50zm190-200c30-30 60-80 100-100h10l110 120v20l-210 220c-10 10-20 0-20-10a1050 1050 0 00-100-110v-20l110-120zm0 220 190-190-60-70c-20-10-20-20-40-10l-40 30-140 140 90 100zm-140-520c-30 10-70 0-100-20 0-10 0-20 10-10 30 10 60 20 90 10v20zm-40 10 10 10h-100c-10-10 0-20 10-20l40 10h40zm-370-130h-20l-190-210a100 100 0 01-20 40v20h-30l-40 10-10-10v-80l-10-60v-20l80-70c10-10 30 10 20 20 100 70 190 170 280 260v10c10-10 20 10 10 20l-70 70zm40-80c-90-80-200-170-270-270l-70 50c20 40 20 100 0 140l30-10h20l20-60h20c80 50 150 130 200 200l50-50zm-190-440c20-20 30-40 30-70h20c0 30-10 60-40 80-10 10-20 0-10-10zm-50 30-10-10c40-20 50-50 50-90h10c10 40-20 80-50 100zm-50 550 50 10 60 10-10 10-110-20 10-10zm30-10v-10l50 10 40-10v20c-30 10-60 0-90-10zm1130 720 60-150h20l-50 160c80 30 140 120 130 210-10 60-40 110-80 150l-70 50-90 60v20l-10 10h-10c0 20-30 20-30 10-60-120-170-280-110-410 40-90 150-120 240-110zm-230 190 200-110 20-50c-100-10-210 50-220 160zm340-80c-20-30-50-60-90-70l-30 70 130 130c20-40 20-80-10-130zm0 150c-50-30-90-80-130-140l-40 130 40 40 60 70c30-30 60-60 70-100zm-130 150 50-40-60-60-40-50c-20 70-40 140-40 210l90-60zm-120 40 30-160-80 50 50 110zm-60-120 100-80 50-130c-50 30-110 70-180 90l30 120zm150-90 10-10 30 30 30 30-10 10-30-30-30-30zm40-20c20 20 30 40 60 50l-10 20-60-60 10-10zm110-1150v-360h-240l-20-20c40-110 60-230 90-350h10c40 0 110-20 120 20l-20 110-30 110h90v-170a10 10 0 01 10-10h100l10 10a12850 12850 0 01 30 660h-150zm130-20c-30-210-40-420-40-630h-60a2300 2300 0 01-20 180h-110c-10 0-30 0-20-20l40-150 10-40-10-30h-70l-80 320 230 10h20l10 370 100-10zm-170-410-110-10v-10h110v20zm-40 0a10 10 0 01 0 20h-110v-10l110-10zm390 870c40-10 70 10 90 50 20 10 50 20 50 50v10c170 120 430-20 570 150 100 120 0 310-100 400-110 100-270 140-410 60-60-30-100-80-130-140-40-100 10-210-90-280-10 20-50 20-70 0l-20-40c-40 0-70-20-70-60-10-40 30-80 60-110s70-80 120-90zm-90 250c0 40 30 50 60 40-10-10 0-20 10-20 40 30 80 60 90 110 30 70 0 140 40 210 90 180 310 180 450 70 70-60 130-130 150-220 40-140-70-220-200-240-130-10-270 20-390-70l-40 40c130 100 260 160 420 190v-40h30a90 90 0 01-10 40l50 10c10 0 10 30-10 30l-60-10-40 20-100 10-80 20 50 100-20 10-60-90c-20 10-50 30-40 40l-10 10-10-10c0-30 20-50 40-60-60-80-130-150-220-200l-20 30c-10 10-20 0-10-10 10-40 40-70 70-100a480 480 0 01 60-50l10-10c-10-60-110 10-130 20a340 340 0 00-40 40c-20 30-40 60-40 90zm160-70-50 50c90 40 180 110 240 190l20-10c40-10 130 0 180-30-140-30-290-100-390-200zm-230 30 40 40c0-30 10-50 30-70 30-50 80-90 130-120a100 100 0 01 30 0c-40-80-120 0-160 30l-50 50-20 70zm420 450h170v20c-50 20-120 10-170-10v-10zm60-20v-20l160-20 10 20c-60 20-120 20-170 20zm40-800c-80-180 20-370 170-460l-80-220h-30l-10-10c-40 0-20-50 0-60l80-40 70-30c40 10 50 40 30 60l-20 20 100 220h10c90-20 220-30 310 10 70 40 110 120 120 200 30 200-100 370-280 430-170 60-380 60-470-120zm200-780c-20-20-20-10-40 0l-30 10-40 20c-10 10-60 30-30 50a530 530 0 00 120-50c20-10 30-10 20-30zm530 500c-10-90-60-190-150-210s-180-10-260 0l-20-10-100-230c-20 20-60 30-100 40l100 230-10 10c-130 100-230 250-170 410 70 190 270 190 440 130 160-50 280-190 270-370zm-660 110v-20c-20-50 130-110 160-120 120-60 260-130 390-100a10 10 0 01 10 10l10 20a10 10 0 01 10 10c80 190-60 380-250 420-150 40-350-40-330-220zm260-160a1730 1730 0 00-120 60c-20 10-130 50-130 80 10 60 250-30 290-50 80-30 160-80 230-140-90-20-180 20-270 50zm300-30-10-10a950 950 0 01-390 200c-30 10-110 40-150 20 60 360 690 140 550-210zm-380 350h70l60-10 10 10c-40 30-100 20-140 10v-10zm30-30 120-30v20l-110 30c-10 0-20-10-10-20zm220-420c-40 0-80 0-120 20v-20l120-20v20zm-20 20-120 30v-10l120-30v10zm260-630c80-40 160 0 240 30 0-70 30-150 90-190 60-30 130-40 180 10 60 50 60 130 60 200 0 130-30 270-70 390l-20 10h-10c-170-20-450-100-530-270-30-70-10-140 60-180zm20 230 80 60c120 70 240 100 370 140 40-130 80-270 70-410 0-90-40-200-150-170-90 30-120 130-120 210 0 10-20 20-30 10-80-40-230-110-270 30-10 60 10 90 50 130zm70 1440c100 40 210 90 280 180l100-70a790 790 0 01 90-1040c330-310 900-270 1170 110l-10 20a460 460 0 01-50 30c0 10-10 20-20 10l-40-60-30 20-30 30c80 90 140 200 160 310 40 250-90 520-310 640a640 640 0 01-700-60v-10a520 520 0 01-40-30l-20 20-20 20 20 20v10l-40 70-10 10v10c-10 0-30 0-20-10v-10l-50-60v10l-100 100c50 80 90 180 120 270 0 10-10 20-20 10l-10 10c-100-70-180-160-250-250-60-90-140-180-180-290-10 0 0-30 10-20zm1450 30c80-100 130-230 140-350l-40-10-50 10a10 10 0 01 0 10c0 10 50 40 50 60s-10 30-20 30c-30 10-50 0-70-10-50-20-100-20-130 30l-10 10-70 10c-30 10-30 40-10 70 20 20 50 0 70-10h40c30 0 80 20 100 50l-10 10c10 20-30 30-40 30h-30l-10 10h10c10 10 30 10 30 30l-10 10c-40 60-170-60-210-70-220-70-130 170-170 280 160 0 330-70 440-200zm-830 60v10h10c100 80 230 120 350 130 50-90-30-220 60-290 30-30 80-30 120-20s180 100 220 90c-20-10-50-20-40-50l40-10c10 0 50 10 40-10a10 10 0 01 10 0l-50-30h-80c-20 0-50 10-70-10-40-20-30-60-10-80 20-30 60-30 100-20v-10c10-50 70-60 120-50 20 0 50 30 60 20l20-20-10-10-10-10-10-20c-10 0-20-10-10-20 10-20 40-30 70-30l40 10a580 580 0 00-270-510c-20 110-110 190-220 210-50 10-110 0-160-20-90-30-150-90-250-50-50 20-100 50-120 90-30 50 0 80 20 120 20 50 40 110 40 160-10 90-90 170-180 150 30 110 90 200 170 280zm20-810c110-60 160-30 260 20 160 70 350 30 390-160-240-140-550-90-740 130a560 560 0 00-110 520h10c130 20 170-120 140-220-20-50-50-80-60-130-20-80 50-130 110-160zm-80 790a630 630 0 01-90-730c130-220 400-350 650-300 130 20 240 90 330 180l50-50a680 680 0 00-950-40 670 670 0 00-220 540c10 170 80 310 190 430l10-20 30-10zm-70 130 40-50c-320-260-290-770 0-1030 290-270 740-240 1000 40v10l50 50a460 460 0 01 40-30c-290-340-780-420-1120-110s-310 800-10 1120zm-70-50-30-30-130 100a10 10 0 01-10 0c0 30 20 50 50 50l10-10c-10-10 0-20 10-10l100-100zm0 380-100-250-10 10h-20c-30 0-60-40-50-70h10a10 10 0 01 0-20l20-10c-90-60-160-120-260-160 110 180 250 370 410 500zm-220-310-50-70c-10-10 0-20 10-10l50 70-10 10zm-30 0c-40-30-60-70-90-110l10-10 90 110-10 10zm370-330c20 70 40 110 90 160 10 10 0 20-10 10-50-40-80-100-90-160l10-10zm50 60 80 90c10 10-10 20-10 10-40-20-60-50-80-90-10-10 0-10 10-10zm830-620c20 20 30 50 30 80 10 20-10 20-10 10l-30-80c-10-10 0-20 10-10zm10-40c40 20 70 70 70 120h-20l-20-60-40-50 10-10zM6910 2680c40-20 80-30 90 20 220 60 440 130 670 180a10 10 0 01 10 10c60 20 120 60 170 100 30 10 60 40 50 70-10 40-70 50-100 50h-200l-380-100c-100-30-220-50-310-100-30 30-70 30-90 0l-10-10c-40 0-100 0-130-40-20-40-10-80 10-120 40-80 140-130 220-60zm70 40-40 30c220 70 430 140 660 170v10l30-30c-220-40-450-90-650-180zm810 360h20-10l-10-10v-10a60 60 0 00 0 20zm-200 0h10l10 10h120a950 950 0 00 40 0c-10-40 10-80 40-100l-40-20-100-60h-10c-60 40-80 100-70 170zm0-130c-230-40-450-100-660-190l-30 60 670 160 20-30zm-700-50h-10v-10c120 10 240 60 350 90 110 40 220 60 340 90v-70c-230-40-450-90-670-170v50h-20c-20-60 10-160 80-180h20c-30-40-120 50-130 70l-30 50c-10 40 20 120 70 80zm-180-50 90 30c-10-30 0-60 10-90l80-90c-60-50-140-20-180 50-10 30-30 70 0 100zm80-150c10 0 20 10 10 20-30 0-40 20-60 40l-10-10 60-50zm930 320a10 10 0 01 0 20l-80-10v-10h80zm-20 30v20h-80v-20h80zm-910 2720h10c160 120 420-20 560 150 110 130 0 310-100 400a370 370 0 01-410 70c-50-40-100-80-120-150-40-100 10-210-100-280-10 20-40 20-70 10l-20-40c-40 0-60-30-70-70 0-40 30-80 60-110 40-30 70-80 120-90 40 0 80 10 90 50a10 10 0 01 0 10c30 0 50 10 50 50zm-220-20-50 60c-20 20-30 30-20 60 0 20 20 40 40 40l20-70c30-50 80-90 130-110a100 100 0 01 30-10c-40-80-120 0-150 30zm580 270 10-30c0-20 20-20 20 0v40h40v30l-60-10-40 20c-40 20-70 10-100 10l-90 20 50 100c10 10-10 20-20 10l-60-90c-20 10-50 30-40 40l-10 10-10-10c0-20 20-50 50-60-60-80-130-140-230-200l-20 30c0 10-20 0-10-10l80-100a480 480 0 01 50-40l10-20c-10-60-110 10-120 30a340 340 0 00-50 30c-20 30-40 60-40 100 10 30 30 50 60 30-10 0 0-20 10-10 50 20 80 50 100 100 20 70-10 150 30 210 90 180 310 180 450 70 80-50 130-130 160-220 30-140-80-220-200-240-140-10-280 20-390-70l-50 40c130 100 260 160 420 190zm-430-180-50 50c100 40 190 110 250 190h10c40-20 130-10 190-30-150-30-290-110-400-210zm-550 380c290 160 560 350 830 530l10 10c20 0 20 20 10 30l-770 380-390 190c-120 60-240 140-360 170l-10-10c-10 20-30 10-20-10 100-210 220-420 340-640 110-210 220-430 350-630-10-10 0-20 10-20zm-30 120 100 50s0 20-10 10l-100-50-20 50 70 30c10 0 0 20-10 10l-70-30-20 50 80 40v10l-90-40-30 60 60 30c0 10 0 20-10 10l-30-10-30-20-30 50 100 40c0 10 0 20-10 10l-90-40-40 60 60 20c0 10 0 20-10 10l-50-20-30 50 90 40c10 0 0 20-10 10l-90-40-30 50h10l50 20v20l-60-30-30 50 90 30-10 20-80-40-20 40-20 20h30l20 10v20l-30-10-20-10-30 50 90 40v10l-90-40-40 60 40 10 20 10-10 10h-10l-10-10-30-10-30 50 100 40c10 0 10 20-10 20l-100-40-40 70 60 20-10 10-50-20-30 60 90 30-10 10-90-30-30 50 40 20v10h-30v-10h-20l-20 40 50 20c10 0 0 20-10 10l-20-10h-10l-20-10-70 130c110-90 260-140 380-200l380-180 730-370c-260-170-540-330-800-510a2730 2730 0 01-40 80zm100 190 20-10c150 60 310 140 450 230 10 10 0 20-10 20a10 10 0 01 0 10c-230 180-530 280-790 380h-10l-10-10c40-110 120-210 180-310l170-310zm-320 600c260-120 520-210 760-370l-410-210-180 320c-50 80-100 180-170 260zm110 40-150 50v-10l150-60v20zm40 0v20l-130 50-10-10 140-60zm520-550 140 70c10 10 0 20-10 20l-140-80c-10-10 0-20 10-10zm70 0c50 10 90 30 130 60 10 0 0 20-10 10l-120-60v-10zm-2160-30c-140-40-270-150-340-290 0-10 10-20 20-10 80 130 190 220 330 270 10 10 10 30-10 30zm-80-450c-10 0-20-30 0-30 80-20 130-100 180-160h30c80 120 200 200 340 230 10 0 20 20 10 30l-210 180c-20 20-40 40-70 30-50-10-120-90-150-130-50-40-90-100-130-150zm350 220 60-60 110-100c-140-30-250-110-330-220-40 50-90 120-150 150l-20 10c60 80 130 150 210 220 50 40 70 30 120 0zm-150-90 90 70-10 20-90-80 10-10zm50 0 80 70-20 10-70-70c-10-10 0-20 10-10zm-80 210c-130-50-240-150-300-280l10-10c70 120 170 210 300 270 10 0 0 30-10 20zm940 180-70 30 10 10h10c10-10 30 10 20 20-130 90-260 180-380 290-80 70-170 180-280 230l-20 10c-270-60-360-360-300-600-50 40-220-30-260-50-110-60-240-160-260-290h10c60 70 110 150 190 210 40 40 90 60 140 80 20 0 150 50 160 20h30c200-140 390-270 550-460a1560 1560 0 01-250-130c-90-60-160-140-210-250a2570 2570 0 01-640 520c30-50 80-80 120-110a3170 3170 0 00 530-440l60 90c-10-30-20-70-10-100 0-10 10-20 20-10l190 250 170-110 20 20-20 70h90c10 0 20 20 10 30-60 20-110 60-160 100a1420 1420 0 00 100 50c10 0 20 10 10 20a10 10 0 01 10 0l-10 10h10c20 110 60 200 130 280 80 80 180 130 280 190v20zm-830-890 20 110 140 130 10-20-170-220zm410 210-60 10-20-20 10-60-160 110 100 60 130-100zm-20 220c-150 180-350 350-560 440a10 10 0 01 0 10c0 130-20 250 40 370 60 100 150 160 250 200 210-170 400-370 630-510-240-40-400-270-360-510zm20 30c0 210 110 380 310 450a10 10 0 01 10-10l60-20c-170-100-340-220-380-420zm70 610c-130-80-250-200-260-360h10c30 160 140 250 260 340 20 10 0 30-10 20zm-100-400c-20-20-40-60-40-90h10l40 80c10 10-10 20-10 10zm-40-50c0 30 10 50 30 80l-10 10c-30-30-30-60-30-90h10zm0 510c10 10-10 30-20 20-70-50-130-110-180-190-30-30-100-110-60-150 10-10 20 0 10 10-30 40 80 160 110 190 40 50 90 80 140 120zm-160 110 20 20h10a10 10 0 01 10 0v20c-50 20-130-90-150-120-60-80-90-170-100-260h10c20 70 40 140 80 200a560 560 0 00 70 100l50 40zm-140 90c-40-30-70-70-80-110-10 0 0-10 0 0 30 40 50 70 90 90l-10 20zm-50-20-10 10c-50-10-90-70-90-120h20c0 50 30 80 80 110zm350-190 30 10h-30v-10zM3970 4200c90 110 30 290-40 390-160 220-480 260-710 180-250-90-420-300-450-550-30-240 90-560 340-630 120-30 230 10 300 110 50 50 70 110 80 170 20 100 20 230 130 280 110-30 260-50 350 50zm-120-30c-70-20-160 0-230 10-10 10-20-10-20-20-110-40-120-160-140-260-30-180-180-350-370-270-300 130-360 550-220 810 130 260 460 390 740 320 170-40 310-150 360-320 30-110 10-240-120-270zm60 120-70-50v-10l80 40c10 10 0 20-10 20zm0 20-10 10-100-40v-10c40 0 80 10 110 40zm-100 10c50 0 100 30 110 80s-40 90-80 90c-50-10-90-60-80-110 0-20 20-50 50-60zm-30 90c10 30 40 60 70 50 40-10 60-50 40-80-20-20-50-30-80-30v-10c-20 10-30 50-30 70zm-100 250c-50 10-90-30-90-70-10-50 20-80 70-90v10c40 0 70 30 80 60 0 40-30 80-60 90zm-30-120-20-10-20 50c0 30 20 50 50 50s50-20 50-50-30-50-60-40zm-90-210c20-20 20-40 20-70h20c0 30-10 60-30 80l-10-10zm-40-20c20-20 20-40 10-60l20-10c20 30 0 60-20 80-10 10-20 0-10-10zm-70-10c-70 10-150-30-170-100-10-40 10-90 60-110 60-20 130 10 160 70 40 60 20 130-50 140zm20-140c-30-50-90-60-150-30-20 20-20 60-10 90 20 30 70 60 110 60 70 0 90-70 50-120zm-150 520v10c-30 0-60-20-60-50l20-10c0 30 20 50 40 50zm-40 30v10l-40-20-10-30h10l10 20 30 20zm-110-150c-50 20-120 0-140-50-20-30-10-80 20-100 40-30 100-20 130 20s40 110-10 130zm-10-110c-20-40-60-40-100-20v10c-20 20-20 50 0 70s50 30 80 30c50-10 50-70 20-90zm-90-280-30-40-50-30 10-20 90 80c0 10-10 20-20 10zm-30 10-10 10-40-50c-10-20-30-20-50-30v-10c40-10 90 40 100 80zm-30 0c30 40 40 100 10 130-40 30-110 0-140-40-10-20-10-50 10-70l-10-20c40-30 100-30 130 0zm-80 0-10 10c-30 20-30 60-10 80s80 40 100 10 0-70-30-90l-50-10zm390 350c30-20 70-30 100-10 50 20 60 80 40 120-30 50-100 50-140 10-30-30-30-90 0-120zm30 120c40 20 80 0 90-30 30-80-80-120-120-50a10 10 0 01 0 10c0 20 10 50 30 70zm260-2760c40 70 30 180 50 260a6580 6580 0 00 190 1000l-10 20a4830 4830 0 01-790 200 8870 8870 0 01-450-1190l620-230c100-40 200-80 300-100 40-10 70 0 90 40zm-290 50-190 70-430 170c-50 20-60 20-50 80l30 90 70 190c90 280 210 540 320 810l770-210a6710 6710 0 01-230-1060c0-80 10-190-90-200-60 0-150 50-200 60zm230 480-660 170v-20c210-80 430-140 650-180 20-10 30 20 10 30zm-100-180c-70 20-150-30-160-100s30-130 100-140c60-50 140 10 160 80 10 70-30 140-100 160zm-50-220h-10c-120 30-80 220 50 190 130-20 90-250-40-190zm70 150-70-20 10 20h-20a190 190 0 01-10-30c-20-10-10-30 0-30a180 180 0 01 10-60h20l80 100-20 20zm-60-90a180 180 0 00-10 40l50 10-40-50zm100 200-320 100c-100 30-210 70-320 80l-10-10 310-100 330-100c20 0 30 30 10 30zm-740-20c-10 0-20-10-10-20l170-70a4780 4780 0 01-160 90zm-80-30c-10 0-20-10-10-20l160-60v10l-150 70zm250 580 650-160 20-10c20 0 30 30 10 30l-680 160v-20zm60 170 630-190c10-10 20 20 0 30l-620 170c-10 10-20-10-10-10zm60 130c200-60 390-130 590-180 20-10 30 20 10 20-190 70-390 120-590 180-10 0-20-10-10-20zm540 50 160-50v20a2920 2920 0 01-160 30zm150-70-90 20v-10a1340 1340 0 01 90-30v20zm-180-550c-100 0-220 50-310 70-100 30-200 60-310 70v-10l350-100c80-20 190-70 270-60 20 10 10 30 0 30zm-2470-420c440 350 1000 550 1360 1000 70-60 170-10 240 40 100 80 180 190 200 320l-10 10-20 10c-130-70-300-20-410-140-40-40-60-90-50-140-500-280-940-670-1330-1080-10-20 10-40 20-20zm1580 1310h10c70 10 130 10 190 40-30-70-60-140-110-210l-10 10c-30-10-50 10-50 40l20 50a120 120 0 01 20 10c10 10 0 20-10 20-20-10-50-30-70 0-10 10 0 30 10 40zm-30-10v-50c10-20 30-20 50-20-10-20-20-50-10-80 10-10 30-30 50-30l-10-10c-70-70-270-190-290-10-10 120 110 180 210 200zm-530-420 290 200 30-60v-10l-230-230c-50 10-90 50-90 100zm-20-10c0-50 40-100 90-100-290-250-640-420-960-640 270 280 570 520 870 740zm-110-210-140-90v-10l150 80-10 20zm-90-30 130 80c10 0 0 20-10 10l-130-80 10-10zm680 400-10 20h-40c-20 0-30 10-40 30-10 0-20 0-10-10 10-30 60-60 100-40zm30 30c10 10 0 20-10 20l-30-20a50 50 0 00-40 20h-10c20-30 70-40 90-20zM890 3930c0-50 40-100 60-150l110-200a7200 7200 0 01 250-400l20 10c180 50 360 120 530 180 160 60 330 110 490 180h20l10-10 40 20v40l-10 30c0 40 0 70 20 100l50 10h20a1190 1190 0 01 30-50c30-10 50 10 60 30s10 50-10 60c-100 190-210 380-340 540-50 60-130 130-210 120h-10c-90 50-210-20-290-50l-420-150-210-70-170-70c-50-40-80-100-40-160v-10zm430-710-210 330-100 190c-40 60-80 130-100 200l500 150 490 160c10-60 50-140 90-190l350-500c-340-100-680-240-1020-340zm1120 540v10a3570 3570 0 01-350 480c120-160 230-320 330-500h10c-20-10-40-30-40-60a10670 10670 0 00-10-30l-190 270c-40 60-220 270-180 370 120 120 270-200 320-280l150-250-40-10zm-110 380 230-370h10v-40c0-20-20-20-30-20-80 180-200 360-310 520-50 70-170 190-240 80v-10c-30-50 50-180 80-230a7260 7260 0 01 330-500l-20-10c0 10 0 20-10 10l-250 360c-70 100-230 260-180 390 90 250 330-90 390-180zm-1010 70 10 10 120 40 290 100c70 30 170 80 260 70l-50-30c-40-40-50-80-50-120-170-40-330-110-500-160l-100-30c-10 40-10 90 20 120zm-230-70 80 20 130 50c-30-30-40-80-20-120l-180-60c-20 40-20 70-10 110zm-20-10c-10-30-10-80 10-110l-180-50c-20 90 80 130 170 160zm810 40-10-10 40-90h20l-50 100zm-20-40-20-10 50-100c10-10 20 0 20 10l-50 100zm-670-540c-10 0-20 0-10-10 0-20 10-50 30-70h10l-30 80zm-70 60-10-10 80-140 10 10-80 140zm1190 2840h10l-10-30a3910 3910 0 01 650-710c50-50 120-90 180-120 30-20 120-80 160-60 40 30 0 100-10 130-30 90-70 170-120 250l-10 10c-80 120-180 230-270 330a11300 11300 0 01-340 360c-110 70-280-20-240-160zm860-580c40-90 150-290 100-310a1920 1920 0 00-180 90l-120 70v10c20 40 30 80 70 100 40 30 80 40 130 40zm-120 140 100-110c-50-10-90-20-130-50s-70-80-60-120h-10l-100 100c50 80 90 180 190 180h10zm-40 40 20-20c-100-10-160-100-190-180l-20 30c30 80 100 150 190 170zm-160 200 80-90-90-50c-60 0-90 60-120 90-30 50-150 220-40 240l170-190zm-190 220c-100-40-20-180 10-240 30-50 70-120 130-140 50-10 100 20 130 60l70-80c-90-20-170-90-200-180a7540 7540 0 00-330 390c40 90 100 160 190 190zm-40 40 20-20c-90-40-160-110-180-210l-10 20v10c10 90 50 210 170 200zm-70 80 50-60c-110 10-160-110-170-210a4390 4390 0 00-100 130c0 110 100 200 200 140h20zm-130-60h-10l-10-20 10-10v-30h10v60zm-30 0h-10c-10-30 0-70 10-100h10c-10 30-20 70-10 100zm780-860h10l-20 80h-20l30-80zm50-50 10 10-50 120h-10l50-130zm-710 2120c-10-90 10-230 80-290 90-70 210-70 310-20l10 20-20 80-20 20c-90-50-210 0-200 100 0 110 130 150 200 70h20l80 90v20c-130 140-420 130-460-90zm370 10c-80 80-220 30-240-80-20-130 120-200 230-160l10-70c-80-20-180-30-250 20s-90 150-90 240c0 220 280 250 410 120l-70-70zm-260-210c20-30 60-60 110-60v10c-40 10-80 30-100 60-10 0-20 0-10-10zm20-60c30-20 70-30 110-30v10c-40 0-70 10-110 30v-10zm-220-2230c50-30 120-30 170 10 60 50 70 130 60 200 0 130-20 270-70 390l-20 10h-10c-170-20-450-100-530-270-30-70 0-140 70-180s160 0 230 30c10-70 30-150 100-190zm-90 230c-90-40-240-110-270 30-20 60 0 90 40 130l90 60c110 70 240 100 360 140h10c40-130 70-270 60-410 0-90-40-200-150-170-90 30-120 130-120 210 0 10-10 20-20 10zm1020-450 110 40c10 10 0 20-10 20l-110-50s0-20 10-10zm50 70-50-20-50-30 10-10 50 20 50 30-10 10zm-930-330 40 40c0 20-20 40-40 50-30 0-50-20-50-40 0-30 20-50 50-50zm-10 70c20-10 30-10 30-30l-40-20c-10 20-10 50 10 50zm1120 240c-30 70-70 160-120 220l-10 10h-10l-1100-400a10 10 0 01-10-10l-10-10c10-80 40-160 90-230 0-10 20 0 10 10l-70 220 130 40 10-20 10-20h10l-10 30-10 10 60 20 40-90h10c-10 30-20 70-40 90l70 30 10-40h20l-20 40 60 20 30-80h10c0 30-10 60-30 80l80 30 10-50c10-10 20 0 20 10l-20 40 60 30 40-100 20 10-30 50-10 40 50 20 10-40h20l-10 20v30l40 10 40-80c10-10 20 0 20 10l-40 80 60 20 20-40h20l-20 50 60 20 40-90c10-10 20 0 20 10l-50 90 70 30 20-50c10-10 20 0 20 10l-20 40 60 30c10-30 30-60 50-70 10-10 20 0 10 10l-50 60 120 50 50-90 60-120a8500 8500 0 01-1110-430c380 130 740 280 1120 400 20 0 20 20 10 20l10 20zm-450 1510-90 110c-10 20-30 0-20-10l80-130c-110-150 40-360 150-450 170-140 380-190 600-210l10 10-10 20-200 140a2980 2980 0 01 110 0l80-130c10-10 30 0 20 20l-70 110v20h-10l-100 220c-40 90-70 180-140 240-100 90-300 130-410 40zm-10-70v-200c-40 70-50 150 0 210v10-20zm320 50c20 0 40-10 50-30-100 10-210 0-320-10l-30 40c80 60 220 40 300 0zm-200-410-110 130 10 210 110-130-10-210zm180-120a720 720 0 00-160 100l10 210a2160 2160 0 01 150-140 940 940 0 01 0-170zm10-10 10 160 160-130 10-90-180 60zm380-100-190 30 10 80 180-110zm-120 290 60-130-120-10-170 140h230zm-70 160 60-140-240-10-40 40-90 100 310 10zm-330 0-110 130 340 10 80-110-310-30zm130 100-90-10v-10h90v20zm-10 10v10h-150v-10h150zm-110-240-10-70h20v70h-10zm840-540c-90 10-150-60-150-140-60 40-130 80-190 20-80-70-80-220-70-310 20-90 60-210 150-250 90-50 160 30 240 70l50-90c-30 10-80 0-100-30-50-40-50-110-50-170l20-10c50 10 100 30 140 70 20 30 30 70 20 100l70-60c10-10 30 10 10 20-60 50-100 110-130 180 100-20 220-20 290 80 60 90 10 210-40 300-60 80-150 210-260 220zm10-840-90-40 120 120c0-30-10-50-30-80zm30 100a580 580 0 01-140-140c0 40 10 80 30 110 20 50 70 60 110 50a230 230 0 00 0-20zm220 210c-70-70-170-60-260-50l-20 70 90 20v20c-70 10-130-80-200-50-10 10-10-10-10-10 40-20 70-10 100 10l20-70c-60-20-110-80-180-80-100 0-150 110-170 200-20 80-20 180 10 260 20 60 50 110 150 70 40-10 70-50 100-70 20-10 30 10 20 20l-40 30a10 10 0 01 0 10c10 100 90 150 180 100 30-10 50-40 70-60 50-40 90-90 130-150 40-80 80-190 10-270zm-40 80c0-30-20-60-50-80l10-10c40 10 60 50 60 90h-20zm-30-40c20 30 30 70 20 100h-20l-10-90 10-10zm160-610-30 20h-10c-20 0-40 0-50-20-10-10-20-20-10-40v-10l10-10 10-10 210-170 20 10c30 0 70 30 60 60v10l-50 50c80 120 160 240 300 290 130 50 250 90 370 150 60 40 130 70 80 150l-80 70-190 130-190 130c-40 20-100 80-150 90-70 10-80-60-90-120a2480 2480 0 01-30-400c0-80 10-140-40-200-40-70-90-120-140-180zm190-170-10-30h-40a10 10 0 01-10 0l-210 160 10 30 30 10h10l220-170zm10 390c30 80 10 200 10 280a2540 2540 0 00 20 250c10 50 0 80 50 90 50 20 60 0 100-20l80-60 150-90 160-110c60-40 170-90 90-180a2560 2560 0 00-290-130c-100-30-190-60-260-120-70-70-120-150-170-230l-120 90c60 70 150 150 180 230zm70-50 30 30 50 20-10 20c-30-10-70-30-80-60l10-10zm-10 260 10-10c40-30 150-120 200-120h10l250 90c20 10 60 20 70 50 0 30-20 40-40 60-50 50-120 90-180 130-70 40-130 90-200 120-20 10-30 20-50 10-80-30-70-240-70-320v-10zm80 290c50 20 90-30 120-50l110-70 130-90 50-40c20-30-20-40-40-60l-210-80c-10 30-50 60-60 70-50 30-100 60-160 70 10 80 0 220 60 250zm-60-280 100-40c10 0 100-60 90-70-20-20-150 80-190 110zm180 150-90 50c-10 10-20 0-10-10l90-60c10 0 20 10 10 20zm-20 30c10-10 30 0 20 10-30 30-70 50-110 50v-10c40-10 70-30 90-50zm-30-390c-30 0-60-10-90-40-10-10 10-20 10-10l80 40v10zM3740 7240c-60-110-170-270-110-410 40-80 150-120 240-100l60-160 20 10-50 160c80 30 140 110 130 200-10 60-50 110-90 150l-70 60-90 60 10 10-20 20-10-10v10c0 10-20 20-20 0zm-10-70 30-160-90 50 60 110zm-60-120 100-80 50-130-180 90 30 120zm-30-140v10c60-50 130-80 190-110l30-50c-100-20-210 40-220 150zm340-70c-20-40-60-60-90-80l-30 70 130 140c10-40 10-90-10-130zm0 150-130-140-50 120 50 50 60 60 70-90zm-130 140a770 770 0 00 40-30l-50-70-40-40c-30 60-40 130-40 210 20-30 70-50 90-70zm-30-170 10-10 20 40 30 20v10c-20 0-30-20-30-30l-30-30zm40-10 50 50v10c-30-10-50-30-60-60h10zm-920 390-10-10 90-350 10-10c30 0 100-20 110 30l-20 110-30 110 100-10v-170a10 10 0 01 10-10h90l10 10a12840 12840 0 01 30 660l-120 10-20-10v-360h-250zm250-20h20v370l110-10c-30-200-40-420-40-620h-70a2300 2300 0 01-10 170h-120c-10 10-20 0-20-10l40-160 10-40-10-30h-70c-10 110-40 220-70 330h230zm-200-40h110a10 10 0 01 0 10h-110v-10zm40-30h110v20h-110v-20zm-1230-940h-10c-20-10-30-20-30-40l10-50h10l10-10a10 10 0 01 10 0l280-20 10 20c30 10 40 60 10 80v10l-70 10c0 150 0 290 90 410 80 110 160 220 220 330 40 60 70 130-10 170l-110 10-230 10h-220c-50 0-140 10-180-10-70-30-40-100-10-150 50-120 120-240 200-350 40-60 80-110 80-190l-20-220-40-10zm290-30v-30c0-20-10-30-20-30h-10l-260 10-20 40c0 10 10 20 30 20v10l280-20zm-210 330c-10 80-100 170-140 240a2550 2550 0 00-120 220c-20 40-50 60-10 110 30 30 40 30 90 30h280l190-10c70 0 190 30 170-90-10-40-60-100-80-130l-90-140c-60-80-120-150-150-250-20-90-20-180-10-280l-150 10c10 90 40 200 20 290zm180 220h10l160 210c10 20 40 50 30 80s-40 30-60 30l-230 10-230-10c-20 0-40 0-50-20-50-60 80-240 120-300l10-10h10c50-10 190-20 230 10zm-240 30c-50 70-130 190-90 240 20 40 80 30 120 30h280l70-10c30-20 10-40 0-70-30-60-90-120-130-180l-90 20c-60 0-110-10-160-30zm10-20 100 20c10 0 120 0 110-10 0-30-170-20-210-10zm60 220h-100v-20h100v20zm-30 20c20-10 20 10 10 20-40 10-80 0-120-20 0 0 0-20 10-10l100 10zm190-350c-30-20-40-40-50-80h20c0 30 20 50 40 70 0 10 0 20-10 10zm-60-30c-20-20-40-60-40-90h20l10 40 20 40c10 10-10 20-10 10zM870 4700l650-70c100-10 220-30 320-20 40 0 70 20 80 60 20 90-20 190-30 270a6570 6570 0 00-60 1010l-10 20a4830 4830 0 01-820 0 8870 8870 0 01-130-1270zm30 190 10 200 110 860 800-10h10c-20-290-10-570 20-860a6550 6550 0 01 20-220c10-80 60-190-40-220-50-10-150 10-210 10l-200 20-460 50c-60 10-60 10-70 70l10 100zm30-140 170-20v10c-50 20-110 20-160 30l-10-20zm70 50zm30 600h700c20 0 20 30 0 30l-700-10v-20zm20 170 650-20c20 0 20 30 0 30l-650 10v-20zm30 150 610-30c20 0 20 30 0 30l-610 20v-20zm500 180 170-10v20a2910 2910 0 01-170-10zm170-30a1340 1340 0 01-100 0v-20a1340 1340 0 01 100 0v20zm-80-900c-70 0-140-60-130-140 10-70 60-110 130-110 80-30 140 50 140 120-10 70-70 130-140 130zm10-220-10-10c-120 10-130 190 0 200s150-220 10-190zm30 160-60-40a190 190 0 00 0 20h-20v-30c-20-10-10-30 10-30l20-50h20l50 110-20 20zm-40-100-20 30 50 30-30-60zm-230 440c90 0 200-20 280 20 10 10 0 30-10 20-100-20-220-10-320-10h-310v-20l360-10zm-390-100c220-20 450-20 680-10v30h-680c-20 0-20-20 0-20zm670-120-330 10h-340v-10c110-20 210-20 320-20l350-10c20 0 20 30 0 30zM550 4520a730 730 0 01-140-80v-10c40-210 350-260 430-50 90 230-200 340-380 390l180 110v20a10 10 0 01 0 10c-30 30-50 60-60 110h-20a10 10 0 01-10 0l-310-180v-10l60-100v-20l10-20 200-40c60-20 220-90 210-180-20-30-50-60-90-60-40 10-70 50-80 90h10l-10 20zm70-130c50-10 120 30 120 80l-10 10c10 50-40 100-80 130l-150 70c-40 10-150 60-180 30v20c-10 30-50 80-40 100s60 40 80 50l200 120 50-100-200-120c-10-10 0-20 10-30 130-30 380-110 400-260 20-120-70-210-180-220-100 0-170 70-210 160l110 60c0-50 30-90 80-100zm-110 0 80-60 10 20-40 20-40 30-10-10zm20-50v-10c20-20 40-30 70-30v20l-70 20zm1160-2460c-30-10-40-30-30-60 10-20 40-30 60-20v10c20 10 30 30 20 40 0 30-30 40-50 30zm10-60c-20 0-30 30-10 40l30-10c10-20 0-30-20-30zm60-140c280 280 530 580 810 870v20l-10 20c-50 60-130 110-210 150l-10-10a10 10 0 01-10 0c-250-300-530-570-780-860l-10-10v-20c50-70 110-120 180-170 20 0 30 20 10 20l-170 160a4880 4880 0 01 100 100l20-10 20-20 10 10-20 20-20 10 40 40 80-60c10-10 20 0 10 10a360 360 0 01-80 60l60 50 30-30 10 10-30 30 40 40 60-50c10-10 20 0 10 10l-60 50 50 60 30-30c10-10 20 0 20 10l-40 30 40 50c20-30 50-50 80-60l10 10-40 30-40 30 40 50 30-40c10 0 20 0 10 10l-10 20-10 20h-10l30 30 80-50c10-10 20 10 10 10l-70 50 40 50 40-20 10 10-40 30 50 50 80-60c10-10 20 10 10 10l-80 60 50 50 30-20c10-10 20 0 10 10l-30 30 40 50c20-20 50-40 80-40v20c-30 0-50 10-70 30l90 100 80-60 110-80a8500 8500 0 01-790-890zm630 760 70 90c10 10 0 20-10 10l-70-90c-10-10 0-20 10-10zm10 90-30-40c-10-20-30-30-30-50-10 0 0-10 0 0l40 30 30 50c10 10-10 20-10 10zm880-1360c10-10 40 0 30 20l-70 120-10 20h-10l-100 210c-30 90-70 180-130 240-100 90-310 140-420 40l-80 110c-10 20-30 10-20-10l80-120-10-10c-100-150 40-350 160-450 160-140 380-190 590-210 10 0 20 10 10 20a10 10 0 01 0 10l-210 140a2980 2980 0 01 110 0l80-130zm-710 580-10-200c-30 80-40 150 0 220l10-10v-10zm490-140 60-140c-70 10-150 0-230-10l-40 40-100 100 310 10zm-90 140 80-110-310-20-110 130h340zm-80 60 50-30-320-20-30 40c80 60 220 40 300 10zm-200-420-110 130 10 210 110-130-10-210zm170-120a720 720 0 00-150 110l10 200 140-140v-170zm20-10 10 160 160-130v-90l-170 60zm370-100-180 40v70l180-110zm-180 160-160 130h220l60-130h-120zm-330 160v-60h20l-10 60h-10zm-30 240h150v20l-150-10v-10zm70-20v-10h90c10 10 0 20-10 20l-80-10zm1120 1840c100-40 200-70 290-120 20 0 30 10 20 20l50 100c10 10 0 20-10 20l-80 200c160-80 370 20 340 220s-310 310-400 90v-20l90-90h20c30 20 60 20 90-10 20-30 0-70-40-80-60-20-120 40-160 80-10 10-30-10-20-20l-80-150 10-20 60-160-120 80-20-10c0 10 0 10 0 0-30-20-50-70-60-100l10-20 10-10zm0 20a640 640 0 00 20 60l20 40 150-100c10 0 30 0 20 20l-70 190 70 140c40-30 90-70 140-70 40 0 80 10 90 50 30 80-70 150-120 90l-90 80h10c90 200 350 70 340-120 0-180-210-230-330-130-10 10-30-10-30-20l120-230-40-110c-100 50-200 90-300 110zm450 450c-30 20-70 40-100 30v-10l90-30c10-10 20 0 10 10zm-70 60c50 0 80-20 110-50 10-10 20 0 10 10-20 40-70 50-120 50v-10zm-20-1620c150-50 340-10 370 170s-40 320-220 350c-160 40-310 10-340-170-20-100-10-220-10-330l20-410a10 10 0 01 0-10l10-10h160l10 10-30 540c0 120 40 250 190 200 60-20 110-90 100-160-20-90-140-80-210-40a10 10 0 01-20 0l-20-10-30-110h10l10-20zm30 110c100-60 250-60 260 90 10 110-100 190-200 180-150-10-150-170-150-280l20-320c0-30 20-120 10-150-20-30-90-20-130-20l-10 480c0 150-30 400 170 420 160 10 330-50 340-230 10-90-10-180-90-240-70-50-160-40-240-10l-20-10a700 700 0 01 40 90zm70 370c-40 10-80-10-120-20-10-10 0-20 10-20 30 20 70 20 110 30v10zm0-50c-50 0-110-20-150-40 0-10 0-20 10-10 40 20 90 40 140 40v10zm870 1380v-10h-20a3910 3910 0 01-660-700l-100-200c-10-30-70-120-40-160 30-30 100 10 120 20l250 140v20c120 80 210 200 310 290a11290 11290 0 01 330 380c60 110-50 270-190 220zm-800-1040 30 90 50 100 60 130c50-20 90-20 120-70 20-30 40-70 40-120-80-50-270-170-300-130zm330 150c-10 50-30 100-60 130s-80 70-130 50l10 10 90 100c80-30 180-70 190-170l-100-120zm120 140c-20 90-110 140-200 170l30 30c90-30 160-90 190-180l-20-20zm200 190-80-80c-20 30-50 50-50 80-10 60 40 100 80 130s190 170 230 60l-180-190zm200 210c-40 100-180 10-230-30s-120-80-130-140c-10-50 30-100 70-130l-70-70c-30 90-110 160-200 180l350 370a10 10 0 01 10-10c90-20 160-80 210-160l-10-10zm20 20c-40 90-120 160-220 160l20 20c100-10 220-30 220-150v-10l-20-20zm90 100-50-50c0 110-130 150-220 150a4390 4390 0 00 120 110c110 10 200-80 150-190v-20zm-60 140h-40l-30-10v-10l70 10v10zm-10 20v10c-30 10-70 0-100-20v-10l100 20zm-710-850-120-60 10-10 120 60s0 20-10 10zm-70-20 70 30v20l-80-40 10-10zm1150 2780 90 120c20 10 0 30-20 20-60-70-130-150-160-240-10-30 0-70 30-70 0-10 10-20 20-10l160 190c20 30 50 50 50 80l20 30v20c-20 90-130 80-190 30-50-40-90-110-110-170l-60-150c-60-70 20-130 90-120 90 30 180 140 210 230 10 10-10 20-10 10l-110-140-70-60c-40-20-130 0-90 60a10 10 0 01 0 10l80 190c40 70 160 230 230 110-30-120-140-200-210-290-40 0 10 90 20 100a910 910 0 00 30 50zm1060-2800c20-60 70-110 140-130 180-70 350 60 480 180 170 170 340 360 450 580 70 140 90 330-40 440h-20l-30 70c-70 100-180 180-280 260h-10c-10 20-30 30-60 30l-30 50c-30 40-100 70-140 100a3620 3620 0 01-510 280c-60 20-100 30-150 0-80-60-120-170-150-260-40-10-80-40-100-90-30-80 20-140 80-180-120-200-300-460-210-710l20-40v-10c50-100 120-180 200-250-120-190 190-390 360-320zm-10 30h-10c-160-70-390 110-320 280 100-80 230-120 360-130-30-50-40-100-30-150zm330-140c-170-40-390 90-270 280v10c60-10 120 0 180 10-50-110 50-220 150-280l-60-20zm-70 310a630 630 0 01 210 100c100 80 180 180 250 280l220 320c70-200-70-390-190-540-120-160-250-340-470-320-30 40-40 100-20 160zm760 840c270-230-140-670-300-850-90-90-180-200-300-270-50 30-90 60-120 100 200-30 350 150 460 290 130 170 290 380 200 610l-10 10 10 10c30 30 50 70 60 100zm-1410 440c-20 50 10 80 60 90a220 220 0 00 90-10l80-20a2430 2430 0 00 540-260c-10-10 0-20 10-10h10c10-10 20 10 10 20 30 60 110 210 130 190 10-10 20 0 20 10-40 50-140-120-170-190a1810 1810 0 01-620 290l20 90 50-20-10-30-20-40c0-10 20-20 20 0l30 60v30l-20 10-60 10-10-10-10-100-70 10 90 180c30 40 90 70 140 60l100-40a3980 3980 0 00 470-270l90-60c40-50 20-90-10-140a790 790 0 00-130-200c-30-40-50-20-80 60l50 60c10 10-10 20-20 10-40-30-90-90-60-150l20-20-380 130-190 70-100 50c-70 40-80 60-70 140zm-160-790c-50 220 120 440 210 630l110-60a16640 16640 0 01 600-190l60 10c80 50 150 180 180 260l20 60h10c90 0 0-190-10-210a3080 3080 0 00-90-180l-170-310c-60-90-120-190-210-270-90-70-200-90-310-80-180 20-360 150-400 340zm120-250c100-80 230-130 350-120 290 0 440 290 560 510a3050 3050 0 01 230 530l230-200c100-110-20-230-80-320-120-170-230-370-390-500a640 640 0 00-740-30c80-30 170-60 250-60s170 40 240 70a940 940 0 01 410 350l10 10 30 60v40c-10 20-50 10-70 20 0 0-20-10-10-20l10-100a930 930 0 00-410-350c-80-30-160-60-240-50-90 0-180 40-270 60l-110 100zm1040 330h30c20-10 0-30 0-40l-20-50-10 90zm180 60c10-10 20 0 20 10 30 20 100 80 50 100-20 10-40 0-50-10-20-10-20-40-30-60l-160 110s-20-10-10-20l180-130zm50 90c20 0 10-20 0-30l-40-30a10 10 0 01 0-10l-10 10c10 20 20 60 50 60zm-120 280c20 20 30 60 30 90h-10l-30-90h10zm30-20c20 20 20 40 20 70h-10l-20-60c-10-10 10-20 10-10zm-980-720v20l-110 40v-20l110-40zm-80-20c40-40 100-50 150-30 20 0 10 20 0 20-50-10-100 0-140 20-10 0-20 0-10-10zm730 1080-80 50-10-10 90-50v10zm-200-1470-30 50-10-10c10-30 30-70 60-90 10-10 20 0 20 10l-40 40zm-20-50-30 40h-10c10-30 40-70 70-80 10-10 20 10 10 10l-40 30zm-60 140 20-20-10 20h-10zm1420 4270c-200-30-420-90-610-160-70-30-160-90-180-170-70-70-40-210-40-300l10-440 10-220c0-60-10-130 10-180 30-70 80-110 140-100l10 10c50-20 110 0 160 10l230 40a7190 7190 0 01 450 110v30l-10 560-20 520 10 20v50l-30 10-10 10-30-10a10 10 0 01-10 0c-30 10-60 20-80 50v50l10 20a1200 1200 0 01 60 20c10 20 10 50-10 60-20 20-50 20-70 10zm-790-1330c30-20 70-40 110-30v-180c-90 0-110 110-110 210zm110-10c-40 0-70 10-110 30v220c20-40 70-60 110-60v-190zm0 320v-110c-40 0-80 20-110 60v130l-10 310c-10 80-30 200 10 270l20-50c20-50 60-70 100-90l-10-520zm840-350-380-100-210-40c-70-20-150-40-220-40v1050c70-10 150 0 210 20l580 180c-10-350 30-710 20-1070zm-130 1160a10660 10660 0 00 30-10l-320-110c-60-20-320-120-400-60-80 150 270 200 360 230l290 60-10-40a3570 3570 0 01-570-180c190 60 380 120 570 160h10l40-50zm-10 200 30-10c20-10 20-30 20-40-200-20-410-80-600-140-80-30-230-100-140-200 40-50 190-10 240 0a7260 7260 0 01 580 160l10-20a10 10 0 01-10 0h-10l-410-130c-120-40-320-140-430-50-210 160 180 280 290 310l420 110 10 10zm-170-1390-160-30v-10c60 0 110 10 160 30v10zm-280 830-110-20v-10l110 10v20zm-40 40-100-20v-10l100 10v20zm240-870 80 10v10l-80-10v-10zm430-1870c-80 30-160 50-250 50v-30c80 0 160-20 230-40l-40-140h-10l-30 10v-10l30-10h10l-10-50-100 10-10-20a360 360 0 01 100-10l-10-70-40 10c-10 0-20-10-10-20h40l-10-60-80 20-10-20 90-20-20-70-50 10v-20l50-10-10-60c-40 10-70 20-100 10v-10l50-10h40l-10-60-40 10-10-10 30-10 20-10-10-40h-90c-20 0-20-10-10-20h100l-20-70-40 10-10-20h50l-10-70-100 10v-20l100-10-20-70-40 10-10-20h50l-10-70-90-10s0-20 10-10h80l-30-120h-100l-130 10a8500 8500 0 01 210 1180l-240-1170c-10-10 0-20 10-20l10-10c80-20 180-30 260-20l10 10v10c70 380 170 760 230 1140a10 10 0 01 0 10v20zm280 3300c40-30 80-30 90 20 230 60 440 130 670 180a10 10 0 01 10 10c60 20 120 60 170 90 30 20 60 40 50 80s-70 40-100 50h-200l-380-100c-100-30-220-50-310-100-30 30-70 20-90-10h-10c-40 0-100-10-130-40-20-40-10-80 10-120 40-80 140-130 220-60zm70 30v10l-40 30c220 70 440 140 660 170h10l20-20c-220-40-440-100-650-190zm810 370h20l-10-10a10 10 0 01-10 0v-10 20zm-200 0h10l20 10h110l40-10c-10-30 10-70 40-90a1140 1140 0 00-40-30l-100-50h-10c-60 40-80 100-70 170zm0-140c-230-30-450-90-660-180l-30 60 670 150 20-30zm-700-40h-10v-10c120 10 240 60 350 90l340 90v-70c-230-40-450-90-670-170a160 160 0 00 0 40c10 10-10 20-10 10-30-60 0-160 70-180l10-10 10 10c-30-50-120 50-130 60l-30 60c0 40 20 110 70 80zm-180-50c30 20 60 20 90 20-10-20 0-60 10-80l80-100c-60-50-140-10-170 50-20 30-40 80-10 110zm80-150 10 10-60 40c0 10-10 0 0 0 0-30 30-50 50-50zm940 320a10 10 0 01 0 10h-90v-10h90zm-30 30v20l-80-10v-10h80zm-960 260c-20-30-20-80-10-120l10-10 10-10 320 10c20 0 20 20 10 30l10 110-20 10v10l-150 140c170-10 330 170 220 340s-410 160-410-80l10-10h10l120-50c10-10 10 0 10 10 20 20 50 40 80 30 40-30 40-70 10-100-50-40-130 0-180 10-20 0-30-20-10-20l-20-170 20-10 110-130-130 20-20-10zm200-20-150 150 10 160c50-20 110-40 160-20 40 20 60 50 60 90-10 80-120 110-150 30l-110 40c10 220 300 210 370 30 60-160-100-290-260-250-10 0-20-20-10-30l200-160a10 10 0 01 0-10v-110c-100 0-210 0-310-20v110l170-30c20 0 30 10 20 20zm80 530c-40 20-90 20-130 0l10-10c40 20 70 10 110 0 10-10 20 10 10 10zm-40-40c-30 10-70 10-110-10l10-10c30 20 60 20 100 10v10zm880-420c110-30 230 10 300 110 40 50 60 110 70 170 20 100 20 230 130 280 120-30 270-50 350 50 90 110 40 290-40 390-150 220-470 260-710 180-240-90-420-300-450-550-20-240 90-560 350-630zm-250 850c140 260 460 390 750 320 160-40 310-150 350-320 30-110 10-240-110-270-80-20-160 0-240 10-10 10-20-10-20-20-100-40-120-160-130-260-30-180-180-350-380-270-290 130-350 550-220 810zm220-280c10 10 0 20-10 20l-40-50-40-30v-10c40 10 70 40 90 70zm-40 20-20 10-30-50-60-30v-10c50-10 100 40 110 80zm-30 0c30 40 40 100 0 130s-110 0-130-40c-20-20-10-50 0-70v-20c30-30 90-30 130 0zm-90 0v10c-40 20-40 60-10 80 20 20 70 40 90 10s0-70-20-90l-60-10zm260 250c20 40 30 110-20 130-40 20-110 0-140-50-10-30-10-80 30-90 40-40 100-30 130 10zm-130 80c20 20 60 30 90 30 50-10 40-60 20-90-30-40-70-40-100-20l-10 10c-20 20-20 50 0 70zm190 160 10 20a40 40 0 00 20 20v10l-30-20-20-30h20zm30-40c10 30 20 50 50 50v10c-30 0-70-20-70-50l20-10zm50-100c20-20 60-30 100-10 50 20 60 80 30 120-30 50-90 50-130 10-40-30-40-90 0-120zm30 120c30 20 70 0 80-30 30-80-80-120-110-50l-10 10c0 20 10 50 40 70zm-80-440c-10-50 20-100 60-120 60-20 140 10 170 70s10 130-60 140c-70 20-150-30-170-90zm190-50c-30-50-90-60-140-30-20 20-30 60-10 90s60 60 110 60c70 0 80-70 40-120zm70 90 10-10c20 30 10 60-20 80l-10-10c20-20 20-40 20-60zm40 10h20c10 30-10 60-30 80l-10-10c20-20 20-40 20-70zm80 240v10c40 0 70 30 80 60 10 40-20 80-60 90s-80-30-90-70c0-40 30-80 70-90zm10 130c20 0 50-20 50-50-10-30-40-50-70-40l-10-10c-20 10-30 30-30 50 0 30 30 60 60 50zm140-310a10 10 0 01 10 0c40 10 100 30 110 80 0 50-40 90-90 90-50-10-90-60-80-110 0-20 30-50 50-60zm-20 90c10 30 40 60 70 50s50-50 30-80c-10-20-40-30-70-30l-10-10c-20 10-30 50-20 70zm120-120-70-50v-10l80 40c10 10 0 20-10 20zm0 20c10 10 0 20-10 10l-100-40v-10c40 0 80 20 110 40zm720-670 10-50 10-10 130-10 10 10 10 10c0 150-100 480 110 530v20a10 10 0 01 10 20 510 510 0 01-50 70l-10 10c-90-10-180-70-230-150-30 110-160 160-260 160-140 0-240-80-260-220-20-130 10-310 130-390 110-90 270-80 390 0zm-290 580c110 10 240-40 270-160h30c50 80 130 140 220 150h10l30-60c-80-20-130-90-140-160-30-120 0-270 20-390h-120l-10 50a10 10 0 01 0 10h-20c-120-60-260-80-370 0-90 70-120 190-130 300 0 130 70 250 210 260zm90-470c100-20 170 90 160 190-20 80-90 150-180 160-100 0-160-90-160-180 10-90 90-190 180-170zm-10 310c170-20 190-280 0-290l-10-10c-70 20-120 90-130 160 0 80 60 150 140 140zm280-280c-20 30-20 50-20 80h-10c-10-30-10-60 10-90 10-10 20 0 20 10zm20 10v140h-10l-10-140h20zm460 330c10-80-40-160-80-230l10-20c150-30 270-110 350-230h20l100 260c10 40 20 60 0 90-40 40-130 70-180 80-60 30-130 50-190 60-10 20-30 10-30-10zm30-20v10c100-20 200-60 290-110 60-30 60-40 40-100l-20-80-50-140c-90 110-200 180-330 220 30 60 70 120 70 200zm300-150 10 10-110 50v-10l100-50zm-90 10 90-50c10-10 20 10 10 10l-90 50-10-10zm210 250c20-10 30 10 20 20-90 120-240 190-390 200l-10-10c160-30 280-90 380-210zm-420 50c140-20 260-70 360-170 10-10 30 10 20 20a550 550 0 01-380 160v-10zm-290-470h10l100-20-90-30v-20l300-80-30-190c0-20 10-20 20-20l60 40c0-30 20-60 30-80h30c0 70 20 130 40 190a1420 1420 0 00 80-80h40c100 20 200 20 300-10 110-40 200-120 290-190 10-10 20 0 20 10l-10 80 10-10h10v-10c0-20 20-20 20-10l130 460c30 110 110 230 100 350l10 20c-170 230-470 200-670 50 20 60-110 190-150 220-90 70-240 150-360 130v-10c90-30 180-40 270-100 40-20 90-60 120-100 10-10 100-120 90-130v-30c-40-240-90-470-210-690a1560 1560 0 01-210 180c-100 60-200 100-320 100a2570 2570 0 01 240 790c-40-50-50-100-60-150a3170 3170 0 00-210-660zm640-260c190 80 390 40 530-120v-70c-160 120-330 230-530 190zm150 690a10 10 0 01 10 0c120 50 220 120 360 110 120-10 200-80 280-150-70-260-180-510-220-780a460 460 0 01-620 140c110 210 190 450 190 680zm-440-550 100-80c-20-50-40-100-40-150l-20 60h-20l-50-30 30 200zm-20 10v-20l-270 70c30 20 70 20 100 30l170-80zm490-40h-100v-10h100v10zm-60 10c30 20 50 20 80 10l10 20c-40 10-70 0-100-20l10-10zm40 140c150 40 290-30 410-110 20-10 30 10 20 20-130 80-280 160-430 110v-20zm50 170c20 50 180-10 210-20l170-80c10-10 20 10 10 20-70 50-160 80-240 100-40 10-150 40-170-10 0-10 10-20 20-10zm30 140h220a560 560 0 00 160-50l40-20a10 10 0 01 10-10v-10l10 20c0 40-130 70-170 80-90 30-190 30-280 0l10-10zm240 180c50 20 100 0 140-40l10 10c-30 50-100 60-150 40v-10zm50-40v-10c40 0 80-10 120-40v20c-30 20-80 40-120 30zm50-390 20-20c0-10 0-10 0 0l-10 20h-10zm120-610h-10l-380-100c-100-30-220-50-310-100-30 20-70 20-90-10l-10-10c-40 10-90 0-120-40-30-30-20-70 0-110 40-80 140-130 220-60 40-30 80-30 90 20 230 50 440 130 670 180h10l170 100c30 20 60 40 50 80s-60 40-100 50h-190zm-720-420c-60-50-140-10-170 50-20 30-40 80-10 110 30 20 60 20 90 20-10-30 0-60 10-90l80-90zm-40 70-30 60c0 40 20 110 70 80l-10-10c120 10 240 60 350 90l340 90v-70c-230-40-450-100-670-170a160 160 0 00 0 40c10 10-10 20-10 10-30-70 0-160 70-180l10-10h10c-30-40-120 60-130 70zm720 210 20-30c-230-30-450-90-660-180l-30 50c230 60 450 120 670 160zm-590-260-40 40c220 70 440 130 660 170h10l20-20c-220-50-440-100-650-190zm810 370h20l-10-10h-10v-10a60 60 0 00 0 20zm-20 0c-10-30 10-70 40-90l-40-30-100-50h-10c-60 30-80 100-70 160l20 10a10 10 0 01 10 10h120l30-10zm-150-30h80v10h-80v-10zm20-20v-10h90a10 10 0 01 0 10h-90zm-840-320-60 40c0 10 0 0 0 0 0-30 30-50 60-50v10zm1160 680c90 30 180 150 210 230 0 10-10 20-20 10l-100-140-80-50c-40-30-130-10-90 50a10 10 0 01 10 20l80 180c40 70 150 230 230 110-30-120-150-200-220-290-40 0 20 100 20 100a900 900 0 00 30 50l100 120c10 10-10 30-20 20-70-70-140-150-170-240-10-30 10-70 30-70 0-10 10-20 20-10l170 190 50 80 10 40 10 10c-20 90-140 80-200 40-50-50-80-120-110-180l-60-150c-60-60 30-130 100-120zM9990 1830c-150-40-270-150-340-290h10c80 130 190 210 340 270 10 0 10 30-10 20zm-80-450c-20 0-20-20 0-30 80-20 130-100 180-160h20c90 130 210 210 350 240l10 20-210 180c-20 30-40 50-70 40-60-20-120-100-150-130l-130-160zm340 220 70-50 110-100c-140-40-250-110-330-230-50 60-90 120-160 150l-10 10c60 80 130 160 210 220 50 40 70 40 110 0zm-140-80 80 70c10 10 0 20-10 10l-80-70c-10-10 0-20 10-10zm40-10 80 70c10 10 0 20-10 10l-70-70v-10zm-70 220c-130-60-240-160-300-290h10c70 120 170 210 300 260 10 10 0 30-10 30zm-420 420c200 140 10 390-110 530h200l20 20c-10 40-10 80 10 120l-20 20a10 10 0 01-10 0l-350 20-10-10v-120h-10l-10-10 10-20c40-50 100-90 140-150 40-50 140-190 80-250-30-30-70-40-110-10-30 30-30 70-20 110h10c10 0 20 20 0 20a730 730 0 01-150 10l-10-10c-80-200 150-410 340-270zm-330 260 130-10c-30-40-20-90 10-130 40-30 120-30 150 10v10c30 40 20 100 0 150l-90 150c-30 30-90 120-130 120l10 10 10 110h100l230-10a220 220 0 01-10-110l-230 10c-10 0-20-20-10-30 90-100 260-300 200-440-50-110-170-140-270-90-90 60-110 160-100 250zm90-190c-20 20-40 40-40 60h-10c0-30 20-50 40-70 10-10 20 10 10 10zm10 30-20 40-10 50-10-10 30-90s20 0 10 10zm-810 1950a8870 8870 0 01 650-1090 6320 6320 0 01 830 510c30 20 40 50 30 90-40 80-130 140-190 200a6570 6570 0 00-650 780h-20a4830 4830 0 01-650-490zm670 470a6710 6710 0 01 690-840c50-50 150-110 90-200-30-40-120-80-170-110l-170-110-400-230c-50-30-60-30-100 10l-50 80-110 170-430 760 650 470zm230-500 20 10c10 10-10 40-20 30l-550-430c-10-10 0-30 10-20l530 410h10zm-110 140-530-380c0-10 0-20 10-10l540 360c10 20 0 40-20 30zm-70 80c10 10-10 30-20 20-170-100-340-230-510-350l10-10 520 340zm-220 110 140 90a2920 2920 0 01-140-90zm90 0 70 60c10 0 0 20-10 10a1340 1340 0 01-70-60l10-10zm130-610-250-200c-10-10 0-20 10-10l300 210c60 50 170 100 210 180 10 10-20 30-20 10-60-80-170-130-250-190zm-200-320c190 120 380 260 550 400 20 10 0 30-20 20l-540-400c-10-10 0-20 10-20zm340 120-270-200c0-10 0-20 10-10 90 40 180 110 260 170l290 200c10 10 0 40-20 30l-270-190zm250-80c40-50 120-50 170-10 80 30 80 120 40 180-50 50-130 70-190 20-60-40-70-130-20-190zm160 20-10-10c-100-70-220 70-120 160 100 80 260-90 130-150zm-110 60v-10c-10-10 20-20 20-10l60-30c10 0 20 10 10 20l-30 120h-20l-30-70-10 20-20-10 20-30zm50 50 20-70-40 20 20 50zm-360-370zm-40-90-150-80c-10 0 0-20 10-10l150 80-10 10zm-790 2510a410 410 0 01 20-40v-10c50-110 120-190 200-260-120-190 190-390 360-320v10c20-70 70-120 140-140 180-70 350 60 480 180 170 170 340 370 450 580 70 150 100 330-40 440h-20l-20 70c-80 100-190 180-280 260h-20c-10 20-30 30-60 30 0 20-10 40-30 50a3620 3620 0 01-660 380c-50 20-90 30-140 0-80-60-120-170-150-260-40-10-80-30-100-90-20-80 20-130 80-180-120-200-300-460-210-700zm570-600h-10c-160-70-390 110-320 280 110-80 230-120 360-130-30-50-40-100-30-150zm330-140c-170-40-390 90-270 280v10c60-10 120 0 180 10-50-110 50-220 150-280l-60-20zm-70 310a630 630 0 01 210 100c100 80 180 180 250 280l220 320c70-200-70-390-190-540-110-160-250-330-470-320-30 50-40 100-20 160zm760 840c270-230-140-670-300-850-90-90-180-200-300-260-50 20-90 50-120 90 200-30 350 150 460 290 130 170 290 380 200 610v20c30 30 50 70 60 100zm-330 220 20 100 230-200c100-110-20-230-80-320-120-170-230-370-390-500a640 640 0 00-740-30c80-30 170-60 250-60s170 40 240 70a940 940 0 01 410 350l20 10 20 70v30c-10 20-50 10-60 20l-20-10 20-110h-10a930 930 0 00-410-350c-80-20-160-60-240-50-90 0-180 40-270 60l-100 100c90-80 220-120 340-120 290 0 440 290 560 510 80 140 150 280 210 430zm-80-490h30c20-10 0-30 0-40l-20-40v-10l-10 90zm-1000 710c-10 50 10 80 60 90a220 220 0 00 90-10l80-20a2430 2430 0 00 540-250c-10-20 10-30 10-20a40 40 0 01 10 0c10-10 20 10 10 20 30 60 110 210 130 190 10-10 20 0 20 10-40 60-140-120-170-180a1810 1810 0 01-620 280l20 90 50-20-10-30-20-40c0-10 20-20 30 0l20 60v30l-20 10-60 10-10-10-10-100-70 10 90 180c30 40 90 70 140 60 30 0 70-30 100-40a3980 3980 0 00 470-270l90-50c40-60 20-100-10-150a790 790 0 00-80-140l-50-60c-30-40-50-20-80 60l50 60c10 10-10 20-20 20-40-40-90-100-60-160l20-20-380 130-190 70-100 50c-70 40-80 60-70 140zm50-160 120-60a16610 16610 0 01 590-190l60 10c80 50 150 180 180 260l20 60a10 10 0 01 10 0c90 0 0-180-10-210a3090 3090 0 00-90-180 3150 3150 0 00-170-310c-60-90-120-190-210-270-80-70-200-90-310-80-180 30-360 150-400 340-50 220 120 440 210 630zm110-860v20l-110 40v-20l110-40zm-80-20c40-30 100-40 150-30 20 0 10 20 0 20-50-10-100 0-140 20-10 10-10 0-10-10zm620 1170v-10l70-20 50-50 10 10c-20 40-80 70-130 70zm120-90-90 50-10-10 90-50c10-10 20 10 10 10zm360-690 20 10c30 20 100 80 50 100-20 10-40 0-50-10-20-10-20-40-30-60l-160 110-10-20 180-130zm50 90c20 0 10-20 0-30l-40-30v-10l-10 10c10 20 20 60 50 60zm-120 280c20 20 30 60 40 90h-10l-40-90h10zm30-20c20 20 20 40 20 70h-10l-20-60c-10-10 10-20 10-10zm-530-1130-30 50-10-10c10-30 30-70 60-90 10-10 20 0 20 10l-40 40zm-20-50-20 50-20-10c10-30 40-70 70-80 10-10 20 10 10 20l-40 20zm-60 140 20-20-10 20h-10zm400 2220 110 40c10 10 0 20-10 20l-110-50c-10-10 0-20 10-10zm50 70-50-20-50-30 10-10 40 20 60 20-10 20zm-940-330h10c10 10 30 20 30 40 10 20-10 40-30 40-30 10-50-10-50-30 0-30 20-50 40-50zm0 60c20 0 30-10 20-20 0-20-20-20-30-20-20 20-10 50 10 40zm1110 240c-20 80-60 170-120 230l-10 10h-10c-360-150-730-260-1090-400l-10-10-10-10c10-80 40-160 80-230 10-20 30-10 20 10l-80 220a4830 4830 0 01 140 40l10-20 10-20h10l-10 30-10 10 50 20 50-100s20 0 10 10l-40 90 70 20 10-40c10-10 20 0 20 10l-20 40 60 20c10-30 10-60 30-80h10c0 30-10 60-30 80l80 30 10-50c10-10 20 0 20 10l-20 40 60 20c10-30 20-70 40-90l20 10-30 40-20 50 60 20 10-50 20 10-10 20v30l40 10 40-80c10-10 20 0 20 10l-50 80 70 20 20-40h10c10 20 0 40-20 50l70 20 40-90c10-10 20 0 20 10l-50 90 70 20 20-40 20 10-30 40 70 20c10-20 20-50 50-60l10 10-50 60 120 50 50-90 60-120v-10a8500 8500 0 01-1110-420c370 120 740 270 1120 400l10 20v10zm30-290c-50-40-80-110-110-170l-60-150c-60-70 30-140 90-120 100 20 190 140 220 230l-20 10c-30-50-60-100-110-140l-70-60c-40-20-130 0-90 60v10c40 60 60 130 90 190 40 70 150 230 230 110-30-120-150-200-220-290-40 0 20 90 20 100a900 900 0 00 30 50l100 120c10 10-10 30-20 20-70-70-140-160-170-240-10-30 10-70 30-80h20c60 50 120 120 170 190l50 80 10 30v20c-20 90-130 80-190 30zm490 1130c-180 0-380-60-400-270-20-190 140-330 310-380l-10-230-30-10v-10c-30-20-10-50 20-60l90-10h80c30 20 30 50 0 70h-20l20 250h10c90 10 220 40 290 110 50 60 60 150 50 230-40 200-220 310-410 310zm40-940c-10-20-20-10-40-10h-30l-40 10c-10 0-70 0-50 30v10a530 530 0 00 130-20c20 0 30 0 30-20zm260 400c-70-50-160-70-240-80l-10-10-10-10-10-250-110 10 10 240-10 10c-150 50-300 160-290 340 0 200 190 260 370 260 170 0 330-90 370-260 30-90 10-200-70-250zm-340 460c-160-10-320-160-250-320l10-20c0-60 160-60 200-60 120-20 280-40 390 30a10 10 0 01 10 20v20l10 10c10 200-180 330-370 320zm60-380-130 10c-30 0-140 0-160 30v10c-10 50 250 40 290 40l270-60c-80-40-180-40-270-30zm280 60c-140 50-290 70-440 50-20 0-110 0-140-30-70 360 610 360 580-20zm-310 220-120-10v-20l120 10v20zm-30 20v20c-40 10-100-20-130-40-10-10 0-20 10-20l60 30 60 10zm250-380-110-20v-10c40 0 80 0 120 20 10 0 0 20-10 10zm-20 20-120-10v-10h120v20zm-80-690c-50-30-100-80-130-140-40-100 20-210-90-280-10 20-40 20-70 0l-20-40c-40 0-60-30-70-60 0-50 30-80 60-110 40-40 70-80 120-90 40-10 80 10 90 50 30 10 50 20 50 50l10 10c160 120 420-20 560 150 110 120 0 300-100 400-110 100-270 140-410 60zm-290-630-50 50c-10 20-20 40-10 70l40 40 20-70c30-50 80-100 130-120l30-10c-40-70-120 0-160 40zm650 570c70-60 130-140 160-220 30-140-80-230-200-240-140-10-280 20-400-70l-40 40c130 100 260 160 420 190l10-40h20v40l40 10c10 0 10 20-10 20h-50l-40 20-100 10-90 20 50 90c10 20-20 30-20 10l-60-90c-20 20-50 40-40 50l-10 10v-10h-10c0-30 20-50 50-60-60-80-130-150-230-200l-20 30c0 10-20 0-10-10a380 380 0 01 80-100 480 480 0 01 50-50l10-10c-10-60-110 10-130 20l-40 40c-20 30-40 60-40 90 10 30 30 50 60 40-10-10 0-20 10-20 40 30 80 60 100 110 20 70-10 140 30 210 90 170 310 180 450 70zm-490-480-50 50c100 40 180 110 250 190l10-10c40-10 130-10 190-30-150-30-290-100-400-200zm190 470c60 20 110 20 170 10 10-10 20 10 10 20-60 20-130 10-180-10v-20zm60-10v-20l160-20c20-10 20 10 10 20-50 20-110 20-170 20zM9640 4670c560 20 1130-160 1690-30 20-90 130-110 220-110 120-10 250 40 350 120l-10 20-10 10c-140 40-240 170-400 150-50-10-100-40-130-80-560 80-1150 50-1710-50-20 0-10-30 0-30zm2050 70h10c60-30 110-70 180-80-70-40-140-80-220-90h-10c-20 10-20 40-10 60l50 30h20c20 0 20 20 10 20-20 10-70 10-60 40 0 20 20 20 30 20zm-320-10c70 110 200 70 290 30-10 0-30-10-30-30 0-30 10-50 30-60l-50-50c0-20 0-50 20-60h-20c-100-10-330 20-240 170zm-30 0c-10-20-20-40-10-70h-10l-320-40c-40 40-40 90-10 130l350-20zm-370 20c-30-40-30-90 0-130-380-10-760 70-1140 80 380 50 760 60 1140 50zm-160-60-150 10v-20l150-10v20zm-60-30-170 20v-20l170-20v20zm690-70 10 20-40 30-10 40h-10c-10-30 10-80 50-90zm50 10v10l-40 10-10 40h-10c-10-30 20-70 60-60zm-1280 740c-20-100 10-230 80-290 90-70 210-70 300-20h10l10 20-30 80c10 10 0 20-20 20-80-50-200 0-200 100 10 110 140 150 210 70h10l80 90c10 0 20 10 10 20-130 140-420 130-460-90zm430 80-70-70c-80 80-220 30-230-80-20-130 110-200 220-160l20-70c-80-20-180-30-250 20-80 50-100 150-90 240 0 220 280 240 400 120zm-330-280c30-30 70-60 110-60v10c-40 10-70 30-100 60l-10-10zm30-60c30-20 70-30 110-30v10c-40 0-80 10-110 30v-10zm920 1850-20-10 90-350 10-10c40 0 110-20 120 20l-20 110-30 110h90v-170a10 10 0 01 10-10h100l10 10a12840 12840 0 01 30 660l-130 10-20-10v-360h-240zm240-20h20l10 370 100-10c-30-200-40-420-40-630h-60a2300 2300 0 01-20 180h-110c-10 0-30 0-20-10l40-160 10-40-10-30h-70l-70 330h220zm-190-40 110-10a10 10 0 01 0 20h-110v-10zm40-30h110v20h-110v-20zm-440-750c-30 50-70 90-120 130h-20c-120 0-200-180-170-280 40-140 200-160 320-140l90-100c10-230 40-450 180-640 10-10 30-10 20 10v360a4760 4760 0 01 250-280c40 200-40 440-260 500v110c10 50 40 90 70 120 40 40 70 70 80 120 70 200-120 390-320 330 0 10-30 10-20-10v-380l-100 150zm100-350-20 20-50 50-10 20c-100-10-200-10-270 70-100 100 10 260 110 300 60-60 110-110 150-180 30-40 50-90 90-120v-160zm420-560-210 290a10 10 0 01-10 0l-10 150v10c180-80 260-260 230-450zm-90 910c0-60-20-130-70-180-30-20-70-40-90-70l-10-60h-120v-10l120-10v-30l10-230 10-380c-230 350-100 780-160 1180 150 40 310-50 310-210zm-230-130c30-60 110 10 130 40 50 50 70 130 20 200-20 40-100 90-150 50h-10v-180c0-30-10-80 10-110zm10 260c20 0 20 20 10 30 60-30 130-50 130-140 0-40-30-120-80-140-20-10-40-10-50 20v130l-10 100zm-30-600h20c10 0 30 10 30 30 10 20-10 40-40 30-20 0-40-20-30-40l20-20zm10 40c10 10 20 0 20-10s-10-20-20-10a10 10 0 01-10 0v10l10 10zm200-240 10 10-60 80-10-10 60-80zm50 10 10 20-30 20a100 100 0 00-20 40l-20-10c10-30 30-60 60-70zm-370 450-50-40c-10 0-10-10 0 0l60 30-10 10zm-60 0-80-20v-10c30 0 60 0 90 20l-10 10zm20 50-170 190a10 10 0 01 0 10 10 10 0 01-20-10c-50-50-90-120-40-180 60-70 150-50 220-30l10 20zm-190 10c-70 50-20 120 20 160l140-170c-60-20-110-30-160 10zm1500-1420c290 160 560 340 840 520v10c20 0 30 20 10 30l-770 380-390 190c-110 60-230 140-360 170l-10-10v10c-10 10-30 0-20-20l340-630c120-210 220-440 350-640-10-10 0-20 10-10zm-30 110 100 50c10 10 0 20-10 10l-90-50-30 50 70 30v10l-80-30-20 50 90 40-10 20-90-50-30 60 60 30c10 10 0 20-10 10l-20-10-40-20-20 50 90 40c10 10 0 20-10 20l-90-50-30 60 50 20v20l-60-30-30 50 90 40c10 0 0 20-10 10l-80-40-30 50 60 30-10 10-50-30-30 50 80 40-10 10-80-40-20 40-10 20h20l30 10c10 10 0 20-10 20l-30-10-20-10-30 50 100 40-10 10-90-40-30 60 30 10 20 10v10h-10a50 50 0 01-10 0l-10-10-30-10-30 60 100 30v20l-100-40-40 70 50 20v10l-60-20-30 60 90 30v10l-90-30-40 60 40 10v10h-20l-10-10h-10l-30 40 50 20h10l-10 20-30-20-20-10-80 130h10c110-80 250-140 380-200l370-180 740-370c-270-170-550-330-810-510l-40 80zm110 190 10-10c150 60 310 140 450 230v30a10 10 0 01-10 0c-220 180-520 280-790 380h-10l-10-10c50-110 120-210 180-310l180-310zm-320 600c250-120 510-210 750-360l-410-220-180 320-160 260zm100 40-140 50c-10 10-20 0-10-10l150-50v10zm40 0v20l-130 50v-10l130-60zm520-550 140 80-10 10-140-80 10-10zm80 0c40 10 90 30 120 60 10 10 0 20-10 10l-120-60s0-20 10-10zm-1080 1470 300-200a4770 4770 0 01-370-40c150-150 380-220 560-80l90-60c40-30 50-70 60-120s20-90 50-130c130-180 390-120 450 80 20-10 30 10 10 20l-310 210h170l180 30 10 10c70 100-30 270-140 300-130 40-240-80-290-190l-130-10c-190 120-400 220-630 210-20 0-20-20-10-30zm-30-240 350 20a10 10 0 01 20 0l120-80h10c-170-110-360-70-500 60zm730 40 60 20c10-10 20-20 30-10 50 90 100 180 210 190 140 20 210-160 180-270l-230-20c-50 0-100 10-150-10l-130 100h30zm420-340c-50-140-210-220-350-140-50 40-90 100-100 160-10 40 0 80-20 110l-40 50 70 100-10 10-80-100-20 20-190 120-330 210c420-20 710-360 1070-540zm-550 290c10 20 10 40-20 50h-30l-10-10v-10c-10-10 0-30 10-40 10-20 40-10 50 10zm-40 30a10 10 0 01 10 0h10v-20l-20-10v30zm370-450c60-10 130 30 140 90v10l-150 100c-20 20-60 60-100 60-60 0-50-100-40-130 20-70 80-130 150-130zm-90 230 30-30 80-40 80-60c-10-10 10-30 20-20-60-40-110-80-180-30-40 20-80 90-70 140-10 30 10 40 40 40zm-20 250v-70h10v60c10 10 0 10-10 10zm40-20 40 70-10 10c-30-20-40-50-40-80h10zm30-40 260 20a10 10 0 01 0 10 10 10 0 01 10 10c-10 70-50 150-130 140-90-10-130-90-150-160l10-20zm120 150c80 20 110-50 130-110l-230-10c20 50 50 100 100 120zm-640-160h-100l10-20h90v20zm-30-50c-30 10-60 10-90-10-10 0 0-20 10-10l40 10h40v10zm1420 990c70 100 20 220-40 310-50 80-150 200-250 210-90 20-160-50-150-140-60 40-130 80-200 20-70-70-80-210-60-300 10-100 60-210 150-260 90-40 160 40 240 80l50-90c-40 10-80-10-110-30-40-40-50-110-40-170l10-10c60 10 110 30 140 70 20 30 40 60 30 100l70-60c10-10 20 10 10 20-60 50-110 110-130 170 100-20 220-10 280 80zm-290-310c-20-20-50-40-90-40a1290 1290 0 00 130 120c0-30-10-60-40-80zm40 100-140-140c0 40 0 80 20 110 30 40 80 60 120 50v-10a240 240 0 00 0-10zm-40 160-20 60c30 20 50 30 80 20 20 0 20 20 10 20-80 20-130-70-210-40v-10c30-20 70-10 100 0l10-70c-60-20-100-70-170-70-100 0-160 110-180 200-20 80-20 170 10 250 30 70 60 110 160 80l100-70c10-10 30 10 10 20l-30 30c0 100 90 150 180 110l70-60 130-150c40-80 80-190 10-270-70-70-180-60-260-50zm220 130c0-40-20-70-50-90 0 0 0-10 0 0 40 10 70 40 70 90h-20zm-30-40c20 30 20 70 20 100h-20l-10-90c-10-10 0-20 10-10zm-680-370h-10l-100 220c-30 90-70 180-140 240-90 80-300 130-410 40l-80 110c-10 20-30 0-30-10l80-130c-110-150 40-360 150-450 170-140 390-190 600-210l10 10v20l-210 140h110l80-130c10-10 40 0 30 20l-80 110v20zm-660 430-10-200c-30 70-40 150 0 210v10l10-10v-10zm490-140 60-140-230-10-40 40-100 100 310 10zm-100 140c40-30 70-70 90-110-110 0-210-10-310-30l-110 130 330 10zm-70 50 50-30c-110 10-220 0-320-10l-30 40c80 60 210 40 300 0zm-200-410-110 130 10 210a1940 1940 0 01 110-130c-10-70-20-140-10-210zm170-120a720 720 0 00-160 100l20 210a2160 2160 0 01 140-150 940 940 0 01 0-160zm20-10 10 150 160-120v-90c-60 10-120 30-170 60zm370-100-180 30v80l180-110zm-180 150-170 140h230l60-130-120-10zm-330 170v-70h10v70h-10zm-30 240h150v10h-150v-10zm70-20v-10h90l-10 20-80-10zm-1010 530v-10c10-10 30 10 20 20a730 730 0 01-120 100l-10 10c-190-110-140-420 90-430 240-20 260 300 250 480l160-130h20v10l90 90v10a10 10 0 01-10 20l-260 230h-20l-70-90h-20l-10-20 20-210c-10-50-20-230-100-240-40 0-80 20-90 60s20 80 60 100zm-80-100c0-50 60-100 110-90l10 10c50 10 80 70 90 120l30 170c0 40 0 150-30 170l20 10c20 20 50 70 80 70 20 0 60-40 70-60l180-150c-40-20-60-50-80-80l-180 150c-10 10-20 0-20-10 10-140 10-400-130-470-100-50-220 0-260 100s10 190 80 260l90-90c-40-10-70-60-60-110zm-30 100c-20-20-40-60-40-90h20l10 40 20 50h-10zm-50-30c-20-20-20-50-10-80h10v80c10 10 0 10 0 0zm-390-6190c20 100 60 200 130 270 80 80 180 140 280 190v30l-70 20 10 20 10-10c10-10 30 10 10 20l-370 290c-90 80-170 190-280 230 0 10-10 20-20 10-280-60-370-350-300-600-50 50-220-30-260-50-110-50-240-160-260-280l10-10c60 80 110 160 190 220l140 70c20 10 150 50 160 30 0-20 20-20 30-10 200-130 390-270 550-460a1560 1560 0 01-250-120c-90-70-170-150-210-260a2570 2570 0 01-640 520c30-50 70-70 120-100a3170 3170 0 00 530-440l50 80V980h20l190 250 160-110c10-10 30 0 20 10l-10 70h90c10 10 20 20 10 30-60 30-110 60-160 110l100 40 10 20v10l10 10zm-420-400 20 100c40 50 80 90 140 130l10-10-170-220zm400 210h-50c-10 10-20 0-20-10l10-60-170 100c40 30 70 50 110 60a690 690 0 01 120-90zm-20 220a1580 1580 0 01-550 440c0 130-20 250 40 370 60 110 150 160 250 210 210-170 400-370 630-510-240-40-400-280-370-510zm30 20c0 210 110 380 310 450l10-10 60-20c-170-100-340-210-380-420zm70 620c-130-90-250-200-260-360-10-10 10-10 10-10 20 160 140 260 260 340 10 10 0 40-10 30zm-100-410c-30-20-40-50-40-90h10l40 80-10 10zm-40-50c0 30 10 60 30 80 0 10-10 20-20 10-20-20-30-60-20-90h10zm0 520c10 10-10 20-20 10-70-40-140-110-190-180-20-30-90-120-50-160 10 0 20 0 10 10-30 40 80 160 110 190l140 130zm-170 100 30 30v-10a10 10 0 01 20 10l-10 20c-40 10-120-100-140-120-60-80-90-170-110-270h20a560 560 0 00 200 340zm-140 90c-30-20-60-60-80-100l10-10 90 100s-10 20-20 10zm-40-20c10 0 0 20-10 10-50-10-90-70-90-120h10c10 50 40 90 90 110zm350-180h30-30zm1080 1050c-40 210-360 380-530 220a20 20 0 01-10-10c-50 60-120 100-200 120-10 50 0 110 30 160a10 10 0 01 10 0c80 10 210 60 210 160v10c20 100 50 320-60 390-100 70-270 60-390 50a1180 1180 0 01-250-50c-50-10-120-30-170-70-30-30-30-70-30-120l40-250c-30-150 160-180 270-160h10c50-40 90-90 120-150-100-50-160-130-190-220-240 60-510-120-450-390 30-100 110-190 220-210 60-20 200-10 230 60a1140 1140 0 01 20-40h20c110 80 230 110 360 130 120 20 240 30 350-40-100-70-210-120-330-140-110-10-270-20-370 40h-10c10-50 60-50 100-60a810 810 0 01 630 150l10 10 10 10-10 80c200-90 400 110 360 320zm-1320 970c90 60 240 80 340 90 110 20 270 30 370-20 120-40 110-210 100-330-70 140-330 110-450 100-110-10-320-40-380-160-20 110-50 270 20 320zm50-470c-80 70-50 160 40 210a990 990 0 00 580 60c90-20 180-130 80-200-30-30-80-40-120-50a200 200 0 00 90 60v20l10 10c0 140-250 80-330 70-50-10-330-50-270-150v-20l30-20 50-20c-50 0-110 0-160 30zm660 120c-190 50-400 30-570-80-10 90 550 210 570 80zm-410-180a370 370 0 01-80 60l-60 20v10c170 70 340 100 520 70-100-50-150-170-120-270a320 320 0 01-170-20c-20 50-50 100-90 130zm-390-920c-90 40-150 130-150 230-20 220 210 350 410 300l-10-40-10 10c-100-10-200-20-260-100-50-60-70-140-50-220 40-140 230-190 330-90l10-30c-50-90-200-90-270-60zm250 130c-110-120-300-40-300 120 10 160 160 200 300 220v10c-20-120-20-240 0-350zm440 20c-140-20-280-50-390-140-20 140-60 290-30 440 30 140 110 280 260 320 170 50 330-70 400-220 50-140 70-300 100-440-100 60-230 50-340 40zm250 460c110 50 250 30 310-100 40-70 30-170-50-210-40-30-100-50-150-50l-10-10c-20 130-50 260-100 370zm100-420v40l10-10c80 0 170 30 230 100 40 50 30 120 10 190-60 150-230 200-360 120l-30 30-10 10a10 10 0 01 10 0c150 140 420 10 470-170 70-210-120-380-330-310zm-200 40 10-10c30 10 50 0 70-20 10-10 20 10 20 10-30 30-70 30-100 20zm-50-40 10-10c30 20 60 10 90-10 10-10 20 10 10 10-30 30-70 30-110 10zm-110 60-50 380a10 10 0 01 0 10c10 10 0 20-10 20l-100-20-10-10 50-280-40 10-20 10-20-20-30-30 10-10v-10l60-40 40-40 10-20 110 30c20 0 10 20 0 20zm-100-20c-20 40-70 70-110 80l20 20 20 20 50-30c10-10 30 10 20 20h-10c20 90-10 190-40 280l80 10c0-120 10-270 50-380h10l-90-20zm-190 340c-20-10-40-50-40-70l10-10 20 40 20 30c10 10 0 20-10 10zm-30 10-50-100 10-10 30 50 20 50-10 10zm230 370 10 40 30 30c10 10 0 20-10 10-20-10-50-50-50-80h20zm50 10c0 30 10 50 30 80v10c-30-20-50-60-50-90 0-10 20-20 20 0zm-490 330 80 20c10 0 0 20-10 10l-70-20v-10zm0-50v-10l40 30 50 20v10c-40 0-70-20-90-50zm180 90 10-10 160 20c40 0 100 0 140 20v10c10 50-20 100-30 150l-10 20-300-40-10-20 40-150zm260 180 20-90c0-20 10-30-10-50h-50l-190-30-40 130 270 40zm2540-480-10 10h-80l-10-70h-30l-40 20c20 110 10 230-40 340a630 630 0 01-590 380c-250-10-480-180-560-410a10 10 0 01 0-10v-10l-20-50-30 10-20 10v30l-10 10-70 30v10h-10c-10 0-20-10-10-20h10l-20-80-10 10-130 30-40 290-20 10-20-10c-40-110-70-220-80-340-10-110-20-230 0-330v-10c-10-10 10-20 20-10 60 90 130 190 140 300l120-10c-30-380 240-750 630-830 440-90 910 230 930 700zm-1830-130c0 210 10 450 90 640l40-270-10 10-10-10c-40-20-40-60-10-90a10 10 0 01 10-10h20c-40-90-70-180-130-270zm280 270-160 20h-10c-20 20-10 50 10 70l10-10h20c40-20 90-30 130-30v-50zm950 480c120-40 230-120 300-220l-30-30-50-10v10s20 60 10 70-30 20-40 10c-20 0-30-20-50-40-30-40-70-70-120-40h-20l-60-30c-30 0-50 20-50 50v10c10 20 40 20 60 30l40 20c30 20 50 50 60 90h-20c0 30-30 20-50 10l-20-20-10 10v10l20 30h-20c-60 40-120-130-140-160-150-180-200 70-290 140 140 90 310 120 480 60zm-740-370a10 10 0 01 0 10c50 120 130 220 240 290 80-50 80-200 190-220 50 0 90 20 120 50 30 20 100 180 140 190-20-20-40-40-10-60l40 10s40 40 40 20a10 10 0 01 10-10l-30-50-60-40c-30 0-60-10-60-40h-10c-10-30 10-70 40-80 40-10 70 10 90 40l10-10c40-40 100-10 130 20l40 60 30-20v-10l-10-10v-50c30-10 60 0 80 10l30 30a580 580 0 00 40-570c-80 80-190 110-300 60-50-20-90-50-130-100-60-70-80-160-180-180-50 0-110-10-160 20-40 30-40 70-40 120s-20 110-50 150c-60 70-160 100-230 40-30 100-30 220 0 330zm1070-470a590 590 0 00-700-270c-190 60-320 210-360 390 100 80 210-20 230-120l20-140c30-80 110-80 190-80 110 10 150 60 210 150 90 150 270 210 410 70zm-1140 410h30c-60-260 70-540 300-670 230-120 530-90 720 90 90 90 150 200 180 320l70-10c-80-350-410-600-780-530-210 30-380 160-480 340-80 150-90 310-70 470a90 90 0 01 30-10zm-100 80 60-30c-130-380 160-800 540-880 380-70 750 190 830 560v20l10 60a460 460 0 01 50-10c-70-430-450-760-900-670-440 90-680 520-590 950zm200-240c-20 60-20 120 0 180 0 10-10 20-20 10-20-60-10-130 10-190h10zm10 80 30 110-20 10-20-120h10zm1020-100h20c0 30 0 70-20 90h-10l10-90zm40 40v-60l10-10c20 40 20 100-10 140l-10-10 10-60zm-1530 80v-90h10l10 90h-20zm-30-10-10-150h10l20 140-20 10zm500-1590h40c80 70 150 150 240 210 10 10 0 30-10 30l-70 90h-20l-210 20c130 100 150 330-50 400-190 60-420-140-260-320h10a10 10 0 01 10 0l120 30v20c0 40 20 70 50 70 40 10 70-20 70-60-20-70-100-90-150-110-20-10-10-30 10-30l90-140h20l170-20-120-70v-20h-10c10-40 50-80 70-100zm-50 90 160 100c10 0 10 20-10 20l-210 20c-20 50-60 90-90 130 50 20 110 40 130 90 20 40 20 80-10 110-50 50-160 0-130-70l-110-40c-130 180 100 350 260 260s110-300-30-370v-20h260l10-10 70-80c-80-60-160-140-230-220l-40 50-30 30zm-120 580c-50 0-90-40-100-80-10-10 10-10 10-10 20 40 50 60 90 80v10zm-10-50c-30-20-60-40-70-80h10c10 30 40 50 70 60 10 10 0 20-10 20zm550-1030h20l80 90v20c-130 140-420 130-460-90-20-90 10-230 80-290 90-70 210-70 310-20l10 20-20 80-20 20c-90-50-210 0-200 100 0 110 130 150 200 70zm-230-50c-20-130 120-200 230-160l10-70c-80-20-180-30-250 20s-90 150-90 240c0 220 280 240 400 120l-60-70c-80 80-220 30-240-80zm-20-130c20-30 60-60 110-60v10c-40 10-80 30-110 60v-10zm20-60c30-20 70-30 110-30v10c-40 0-70 10-110 30v-10zm1360 2980c-10 50-40 100-80 140l-70 60-90 60v10h10l-20 20h-10c0 10-20 20-30 10-50-120-160-280-100-410 40-90 150-130 240-110l60-150c0-20 20-10 10 0l-50 160c90 30 150 120 130 210zm-40 40c-50-40-100-90-130-140l-50 120 50 50 60 60c30-20 50-60 70-90zm-140 150 50-40-60-60-40-50-30 210c20-30 60-50 80-60zm-110 40 20-160-80 40 60 120zm-60-130 100-70 50-140-180 90 30 120zm-30-130 190-110 20-50c-90-20-210 40-210 160zm240-150-20 60 130 140c10-40 10-80-10-130-30-40-60-60-100-70zm-60 190c-10 0 0-10 0 0l30 30 30 30-10 10-30-30-20-40zm40-10 50 50c10 10 0 20-10 10-20-10-40-30-50-60h10zm-150 1520c-50-30-100-80-120-140-40-100 10-220-100-290-10 30-40 20-70 10l-20-40c-40 0-60-30-70-60 0-50 30-90 60-110 40-40 70-90 120-90 40-10 80 10 90 40v10c30 0 50 20 50 50l10 10c160 120 420-20 560 150 110 120 0 300-100 390-110 110-270 150-410 70zm-280-630-50 50c-20 20-30 40-20 60 0 20 20 40 40 40l20-60c30-50 80-100 130-120l30-10c-40-80-120 0-150 40zm640 570c70-60 130-140 160-230 30-140-80-220-200-230-140-20-280 20-390-70l-50 30c130 100 260 160 420 190l10-30c0-20 20-20 20 0v40l40 10v20h-60l-40 20-100 10c-30 0-60 0-90 20l50 90c10 20-10 20-20 10l-60-90c-20 10-50 30-40 40s0 20-10 10l-10-10c0-20 20-40 50-60-60-80-130-140-230-190l-20 30c0 10-20 0-10-10a380 380 0 01 130-150l10-10c-10-60-110 10-120 20a340 340 0 00-50 40c-20 20-40 50-40 90 10 30 30 50 60 40-10-10 0-30 10-20 50 20 80 60 100 100 20 70-10 150 30 220 90 170 310 180 450 70zm-490-490-50 50c100 40 180 110 250 200l10-10c40-20 130-10 190-30-150-30-290-100-400-210zm190 480c60 20 110 20 170 0l10 20c-60 20-130 20-180-10v-10zm60-20v-10c60 0 110-10 160-30 20 0 20 20 10 30-50 20-110 20-170 10" fill="#686f7a" fill-rule="evenodd"/>
</svg>
